<?xml version="1.0" encoding="UTF-8" standalone="no"?><!-- Generator: Gravit.io --><svg xmlns="http://www.w3.org/2000/svg" xmlns:xlink="http://www.w3.org/1999/xlink" style="isolation:isolate" viewBox="60.661 183.946 183.788 182.179" width="183.788pt" height="182.179pt"><g><path d=" M 208.321 313.956 C 215.966 303.034 220.448 289.761 220.448 275.446 C 220.448 238.166 190.051 207.946 152.555 207.946 C 115.058 207.946 84.661 238.166 84.661 275.446 C 84.661 309.137 109.489 337.062 141.946 342.125 L 141.946 294.957 L 124.707 294.957 L 124.707 275.446 L 141.946 275.446 L 141.946 260.575 C 141.946 243.658 152.083 234.313 167.591 234.313 C 175.019 234.313 182.789 235.631 182.789 235.631 L 182.789 252.243 L 174.227 252.243 C 165.794 252.243 163.163 257.446 163.163 262.784 L 163.163 275.446 L 181.993 275.446 L 178.983 294.957 L 163.163 294.957 L 163.163 342.125 C 181.83 339.213 197.973 328.74 208.321 313.956 Z " fill="rgb(1,2,1)"/></g></svg>