<?xml version="1.0" encoding="UTF-8" standalone="no"?><!-- Generator: Gravit.io --><svg xmlns="http://www.w3.org/2000/svg" xmlns:xlink="http://www.w3.org/1999/xlink" style="isolation:isolate" viewBox="535.606 207.946 135.787 135" width="135.787pt" height="135pt"><g><path d=" M 603.5 207.946 C 640.996 207.946 671.394 238.166 671.394 275.446 C 671.394 312.725 640.996 342.946 603.5 342.946 C 566.004 342.946 535.606 312.725 535.606 275.446 C 535.606 238.166 566.004 207.946 603.5 207.946 Z " fill="rgb(1,2,1)"/><path d=" M 603.5 232.946 C 591.89 232.946 590.434 232.995 585.875 233.202 C 581.325 233.408 578.217 234.126 575.499 235.177 C 572.687 236.263 570.303 237.716 567.927 240.079 C 565.55 242.442 564.088 244.812 562.996 247.607 C 561.94 250.31 561.217 253.399 561.01 257.923 C 560.801 262.457 560.752 263.903 560.752 275.446 C 560.752 286.988 560.801 288.436 561.01 292.969 C 561.217 297.492 561.94 300.582 562.996 303.285 C 564.088 306.08 565.55 308.45 567.927 310.812 C 570.303 313.175 572.687 314.628 575.499 315.715 C 578.217 316.765 581.325 317.484 585.875 317.69 C 590.434 317.897 591.89 317.946 603.5 317.946 C 615.109 317.946 616.565 317.897 621.124 317.69 C 625.675 317.484 628.783 316.765 631.501 315.715 C 634.313 314.628 636.697 313.175 639.073 310.812 C 641.449 308.45 642.912 306.08 644.004 303.285 C 645.06 300.582 645.783 297.492 645.99 292.969 C 646.199 288.436 646.248 286.988 646.248 275.446 C 646.248 263.904 646.199 262.457 645.99 257.923 C 645.783 253.399 645.06 250.31 644.004 247.607 C 642.912 244.812 641.449 242.442 639.073 240.079 C 636.697 237.716 634.313 236.263 631.501 235.177 C 628.783 234.126 625.675 233.408 621.124 233.202 C 616.565 232.995 615.109 232.946 603.5 232.946 L 603.5 232.946 Z  M 603.5 240.604 C 614.914 240.604 616.266 240.647 620.774 240.851 C 624.941 241.041 627.204 241.733 628.711 242.315 C 630.707 243.086 632.131 244.007 633.627 245.494 C 635.122 246.981 636.049 248.397 636.824 250.38 C 637.41 251.878 638.106 254.128 638.297 258.272 C 638.502 262.754 638.545 264.098 638.545 275.446 C 638.545 286.794 638.502 288.138 638.297 292.62 C 638.106 296.763 637.41 299.014 636.824 300.511 C 636.049 302.495 635.122 303.911 633.627 305.398 C 632.131 306.885 630.707 307.806 628.711 308.577 C 627.204 309.159 624.941 309.852 620.774 310.04 C 616.266 310.245 614.915 310.288 603.5 310.288 C 592.085 310.288 590.733 310.245 586.226 310.04 C 582.059 309.852 579.795 309.159 578.289 308.577 C 576.293 307.806 574.869 306.885 573.373 305.398 C 571.878 303.911 570.951 302.495 570.176 300.511 C 569.59 299.014 568.894 296.763 568.703 292.62 C 568.498 288.138 568.455 286.794 568.455 275.446 C 568.455 264.098 568.498 262.754 568.703 258.272 C 568.894 254.128 569.59 251.878 570.176 250.38 C 570.951 248.397 571.877 246.981 573.373 245.494 C 574.869 244.007 576.293 243.086 578.289 242.315 C 579.795 241.733 582.059 241.041 586.226 240.851 C 590.734 240.647 592.086 240.604 603.5 240.604 Z " fill="rgb(255,255,255)"/><path d=" M 603.5 289.613 C 595.63 289.613 589.25 283.27 589.25 275.446 C 589.25 267.622 595.63 261.279 603.5 261.279 C 611.37 261.279 617.75 267.622 617.75 275.446 C 617.75 283.27 611.37 289.613 603.5 289.613 Z  M 603.5 253.622 C 591.377 253.622 581.549 263.393 581.549 275.446 C 581.549 287.499 591.377 297.27 603.5 297.27 C 615.623 297.27 625.451 287.499 625.451 275.446 C 625.451 263.393 615.623 253.622 603.5 253.622 Z " fill="rgb(255,255,255)"/><path d=" M 631.448 252.759 C 631.448 255.576 629.152 257.859 626.319 257.859 C 623.486 257.859 621.19 255.576 621.19 252.759 C 621.19 249.942 623.486 247.659 626.319 247.659 C 629.152 247.659 631.448 249.942 631.448 252.759 Z " fill="rgb(255,255,255)"/></g></svg>