<?xml version="1.0" encoding="UTF-8" standalone="no"?><!-- Generator: Gravit.io --><svg xmlns="http://www.w3.org/2000/svg" xmlns:xlink="http://www.w3.org/1999/xlink" style="isolation:isolate" viewBox="761.079 404.964 135.787 135" width="135.787pt" height="135pt"><g><path d=" M 896.866 472.464 C 896.866 509.743 866.469 539.964 828.973 539.964 C 791.476 539.964 761.079 509.743 761.079 472.464 C 761.079 435.185 791.476 404.964 828.973 404.964 C 866.469 404.964 896.866 435.185 896.866 472.464 Z " fill="rgb(1,2,1)"/><path d=" M 834.226 463.255 C 835.341 462.01 836.26 460.745 837.406 459.672 C 840.926 456.373 845.091 454.708 849.953 454.749 C 852.626 454.771 855.268 454.963 857.844 455.704 C 863.737 457.398 867.162 461.431 868.795 467.154 C 870.02 471.446 870.245 475.853 870.253 480.273 C 870.269 489.598 870.226 498.922 870.246 508.247 C 870.248 509.12 870.003 509.349 869.138 509.341 C 864.307 509.302 859.474 509.301 854.642 509.343 C 853.793 509.35 853.609 509.088 853.612 508.29 C 853.639 499.417 853.645 490.545 853.617 481.672 C 853.609 479.449 853.467 477.227 852.839 475.065 C 851.683 471.083 848.817 469.054 844.62 469.274 C 838.89 469.575 835.911 472.396 835.181 478.188 C 835.006 479.572 834.923 480.956 834.924 482.35 C 834.932 490.979 834.915 499.608 834.947 508.236 C 834.95 509.097 834.734 509.351 833.85 509.343 C 828.984 509.3 824.115 509.305 819.249 509.339 C 818.47 509.345 818.243 509.136 818.244 508.351 C 818.267 491.268 818.267 474.184 818.243 457.1 C 818.242 456.255 818.521 456.059 819.325 456.065 C 823.947 456.099 828.569 456.103 833.19 456.062 C 834.041 456.055 834.26 456.328 834.241 457.129 C 834.194 459.17 834.226 461.213 834.226 463.255 Z " fill="rgb(254,254,254)"/><path d=" M 807.753 482.779 C 807.753 491.23 807.738 499.682 807.773 508.134 C 807.777 509.073 807.541 509.357 806.564 509.346 C 801.735 509.293 796.904 509.306 792.074 509.339 C 791.3 509.345 791.067 509.152 791.068 508.357 C 791.091 491.245 791.089 474.133 791.072 457.021 C 791.071 456.313 791.244 456.061 792 456.065 C 796.9 456.097 801.8 456.106 806.699 456.06 C 807.641 456.05 807.77 456.414 807.768 457.216 C 807.745 465.737 807.753 474.258 807.753 482.779 Z " fill="rgb(254,254,254)"/><path d=" M 809.085 439.108 C 809.089 444.414 804.757 448.737 799.433 448.739 C 794.176 448.741 789.807 444.414 789.79 439.19 C 789.772 433.909 794.139 429.56 799.452 429.565 C 804.73 429.57 809.079 433.879 809.085 439.108 Z " fill="rgb(254,254,254)"/></g></svg>