<?xml version="1.0" encoding="UTF-8" standalone="no"?><!-- Generator: Gravit.io --><svg xmlns="http://www.w3.org/2000/svg" xmlns:xlink="http://www.w3.org/1999/xlink" style="isolation:isolate" viewBox="308.84 207.946 135.787 135" width="135.787pt" height="135pt"><g><path d=" M 444.628 275.446 C 444.628 312.725 414.23 342.946 376.734 342.946 C 339.237 342.946 308.84 312.725 308.84 275.446 C 308.84 238.166 339.237 207.946 376.734 207.946 C 414.23 207.946 444.628 238.166 444.628 275.446 Z " fill="rgb(1,2,1)"/><path d=" M 378.027 225.446 C 367.897 225.446 358.565 228.032 350.717 232.616 C 336.178 241.108 326.73 256.456 326.73 274.916 C 326.73 289.784 332.859 302.632 342.84 311.506 C 343.678 312.252 344.183 313.296 344.218 314.415 L 344.497 323.486 C 344.586 326.38 347.593 328.263 350.256 327.094 L 360.438 322.625 C 361.301 322.247 362.269 322.177 363.178 322.426 C 367.857 323.705 372.837 324.386 378.027 324.386 C 406.925 324.386 429.325 303.341 429.325 274.916 C 429.325 246.491 406.925 225.446 378.027 225.446 Z " fill-rule="evenodd" fill="rgb(255,255,255)"/><path d=" M 347.223 289.383 L 362.292 265.615 C 364.689 261.834 369.822 260.893 373.418 263.574 L 385.403 272.511 C 386.503 273.331 388.016 273.326 389.111 272.5 L 405.297 260.287 C 407.457 258.657 410.277 261.228 408.831 263.509 L 393.763 287.277 C 391.366 291.058 386.233 291.999 382.636 289.318 L 370.652 280.381 C 369.552 279.561 368.038 279.565 366.944 280.392 L 350.758 292.605 C 348.598 294.234 345.777 291.664 347.223 289.383 Z " fill-rule="evenodd" fill="rgb(1,2,1)"/></g></svg>