<?xml version="1.0" encoding="UTF-8" standalone="no"?><!-- Generator: Gravit.io --><svg xmlns="http://www.w3.org/2000/svg" xmlns:xlink="http://www.w3.org/1999/xlink" style="isolation:isolate" viewBox="84.661 404.853 135.788 135.222" width="135.788pt" height="135.222pt"><g><path d=" M 152.611 404.853 C 115.084 404.853 84.661 435.1 84.661 472.409 C 84.661 501.043 102.557 525.508 127.835 535.349 C 127.22 530.011 126.717 521.782 128.059 515.944 C 129.29 510.662 136.001 482.361 136.001 482.361 C 136.001 482.361 133.987 478.302 133.987 472.353 C 133.987 462.957 139.468 455.951 146.29 455.951 C 152.107 455.951 154.903 460.288 154.903 465.458 C 154.903 471.241 151.212 479.915 149.255 487.977 C 147.633 494.705 152.666 500.209 159.321 500.209 C 171.401 500.209 180.685 487.532 180.685 469.295 C 180.685 453.115 168.997 441.828 152.275 441.828 C 132.925 441.828 121.572 456.229 121.572 471.13 C 121.572 476.912 123.809 483.14 126.605 486.531 C 127.164 487.198 127.22 487.81 127.053 488.477 C 126.549 490.59 125.374 495.205 125.151 496.15 C 124.871 497.374 124.144 497.651 122.859 497.04 C 114.357 493.092 109.044 480.804 109.044 470.852 C 109.044 449.557 124.592 429.985 153.953 429.985 C 177.497 429.985 195.841 446.665 195.841 469.017 C 195.841 492.313 181.076 511.051 160.607 511.051 C 153.729 511.051 147.242 507.493 145.06 503.267 C 145.06 503.267 141.649 516.167 140.811 519.336 C 139.3 525.229 135.162 532.569 132.366 537.073 C 138.742 539.019 145.452 540.075 152.498 540.075 C 190.024 540.075 220.448 509.828 220.448 472.52 C 220.56 435.1 190.137 404.853 152.611 404.853 Z " fill="rgb(1,2,1)"/></g></svg>