<?xml version="1.0" encoding="UTF-8" standalone="no"?><!-- Generator: Gravit.io --><svg xmlns="http://www.w3.org/2000/svg" xmlns:xlink="http://www.w3.org/1999/xlink" style="isolation:isolate" viewBox="535.606 797.137 135.787 135" width="135.787pt" height="135pt"><g><path d=" M 671.394 864.637 C 671.394 901.916 640.996 932.137 603.5 932.137 C 566.004 932.137 535.606 901.916 535.606 864.637 C 535.606 827.357 566.004 797.137 603.5 797.137 C 640.996 797.137 671.394 827.357 671.394 864.637 Z " fill-rule="evenodd" fill="rgb(1,2,1)"/><linearGradient id="_lgradient_3" x1="0" y1="0" x2="1" y2="0" gradientTransform="matrix(0,0,0,0,649.195,880.939)" gradientUnits="userSpaceOnUse"><stop offset="0%" stop-opacity="1" style="stop-color:rgb(0,183,240)"/><stop offset="100%" stop-opacity="1" style="stop-color:rgb(0,124,193)"/></linearGradient><path d=" M 649.195 881.9 L 649.195 881.9 C 649.195 881.901 649.195 881.902 649.195 881.903 L 649.195 881.9 Z " fill="url(#_lgradient_3)"/><path d=" M 617.813 882.803 C 616.244 884.922 614.072 886.524 611.578 887.404 C 608.572 888.473 605.397 888.986 602.206 888.923 C 597.819 889.075 593.456 888.255 589.429 886.52 C 588.4 886.064 587.497 885.366 586.799 884.487 C 586.22 883.681 585.92 882.71 585.943 881.72 C 585.885 880.662 586.296 879.633 587.068 878.903 C 587.866 878.207 588.903 877.844 589.965 877.887 C 591.147 877.902 592.309 878.199 593.352 878.753 C 594.65 879.397 595.673 879.882 596.422 880.204 C 597.278 880.561 598.164 880.839 599.07 881.037 C 600.188 881.28 601.329 881.397 602.473 881.386 C 604.496 881.529 606.508 880.996 608.191 879.87 C 609.47 878.876 610.186 877.331 610.118 875.719 C 610.12 874.593 609.689 873.508 608.912 872.688 C 607.884 871.635 606.682 870.765 605.359 870.117 C 603.793 869.296 601.59 868.296 598.75 867.116 C 596.211 866.11 593.78 864.854 591.492 863.366 C 589.766 862.236 588.326 860.726 587.283 858.952 C 586.276 857.077 585.78 854.975 585.842 852.851 C 585.766 850.155 586.692 847.526 588.441 845.467 C 590.259 843.397 592.597 841.845 595.215 840.966 C 598.062 839.966 601.064 839.464 604.083 839.481 C 606.06 839.463 608.033 839.613 609.983 839.932 C 611.379 840.146 612.75 840.497 614.076 840.981 C 615.293 841.392 616.392 842.089 617.278 843.015 C 617.932 843.775 618.282 844.748 618.267 845.748 C 618.314 846.798 617.939 847.823 617.226 848.599 C 616.55 849.313 615.598 849.708 614.611 849.682 C 613.941 849.677 613.278 849.528 612.668 849.247 C 611.167 848.579 609.621 848.017 608.04 847.563 C 606.585 847.182 605.086 846.997 603.581 847.013 C 601.621 846.94 599.681 847.434 597.996 848.433 C 596.548 849.308 595.693 850.897 595.766 852.581 C 595.756 853.666 596.171 854.713 596.924 855.499 C 597.819 856.422 598.876 857.174 600.043 857.718 C 601.352 858.363 603.301 859.218 605.894 860.283 C 606.182 860.374 606.461 860.485 606.732 860.617 C 609.262 861.612 611.688 862.852 613.974 864.318 C 615.78 865.489 617.303 867.043 618.434 868.868 C 619.545 870.786 620.103 872.973 620.043 875.187 C 620.136 877.896 619.356 880.565 617.813 882.803 Z  M 649.189 881.913 C 649.191 881.909 649.193 881.905 649.195 881.9 C 649.187 881.788 649.172 881.677 649.162 881.564 C 649.142 881.321 649.121 881.078 649.093 880.837 C 649.061 880.538 649.022 880.242 648.98 879.947 C 648.965 879.847 648.952 879.747 648.936 879.646 C 648.435 876.398 647.359 873.356 645.815 870.621 C 646.077 868.729 646.224 866.8 646.224 864.836 C 646.224 841.458 627.098 822.506 603.504 822.506 C 601.965 822.506 600.445 822.591 598.949 822.748 C 598.887 822.711 598.827 822.67 598.766 822.633 L 598.766 822.633 C 598.647 822.561 598.526 822.493 598.406 822.423 C 598.317 822.371 598.226 822.32 598.136 822.269 C 597.809 822.082 597.478 821.902 597.142 821.729 C 597.039 821.675 596.935 821.622 596.83 821.569 C 596.79 821.55 596.752 821.524 596.712 821.505 C 596.709 821.505 596.707 821.506 596.704 821.506 C 596.411 821.361 596.114 821.225 595.815 821.09 C 595.706 821.041 595.598 820.991 595.489 820.943 C 595.278 820.853 595.067 820.766 594.854 820.68 C 594.845 820.676 594.837 820.673 594.828 820.669 C 594.685 820.612 594.542 820.557 594.398 820.502 C 594.329 820.475 594.262 820.444 594.193 820.418 C 594.191 820.419 594.19 820.419 594.188 820.419 C 592.989 819.973 591.748 819.61 590.474 819.335 C 590.437 819.327 590.401 819.317 590.363 819.31 C 589.67 819.163 588.967 819.047 588.256 818.954 C 588.19 818.945 588.128 818.93 588.062 818.921 C 588.056 818.923 588.051 818.926 588.045 818.928 C 586.95 818.793 585.838 818.716 584.706 818.716 C 569.81 818.716 557.735 830.682 557.735 845.442 C 557.735 846.209 557.775 846.965 557.838 847.716 C 557.837 847.72 557.835 847.725 557.833 847.729 C 557.838 847.798 557.849 847.865 557.855 847.935 C 557.875 848.146 557.9 848.355 557.924 848.565 C 557.957 848.854 557.992 849.142 558.034 849.427 C 558.046 849.502 558.058 849.576 558.071 849.65 C 558.58 852.922 559.672 855.978 561.236 858.723 C 560.944 860.719 560.786 862.759 560.786 864.836 C 560.786 888.214 579.912 907.166 603.504 907.166 C 605.227 907.166 606.922 907.053 608.593 906.856 C 608.609 906.866 608.626 906.875 608.642 906.885 C 608.708 906.924 608.775 906.961 608.842 906.999 C 608.899 907.032 608.957 907.065 609.015 907.098 C 609.087 907.139 609.158 907.181 609.23 907.221 C 609.758 907.51 610.295 907.781 610.844 908.036 C 610.865 908.046 610.886 908.059 610.907 908.069 C 610.909 908.068 610.912 908.068 610.914 908.067 C 611.256 908.226 611.601 908.378 611.95 908.522 C 612.043 908.561 612.137 908.595 612.231 908.632 C 612.59 908.775 612.953 908.912 613.322 909.04 C 613.383 909.063 613.444 909.089 613.506 909.109 C 613.51 909.108 613.514 909.107 613.519 909.106 C 613.991 909.268 614.468 909.415 614.951 909.55 C 614.999 909.563 615.046 909.577 615.094 909.59 C 615.422 909.68 615.753 909.763 616.085 909.84 C 616.168 909.859 616.252 909.879 616.335 909.897 C 616.644 909.967 616.955 910.03 617.268 910.089 C 617.382 910.11 617.495 910.13 617.608 910.149 C 617.899 910.2 618.191 910.248 618.486 910.289 C 618.635 910.31 618.783 910.326 618.931 910.345 C 619.196 910.377 619.462 910.41 619.729 910.435 C 619.766 910.438 619.803 910.444 619.84 910.447 C 619.843 910.446 619.846 910.445 619.849 910.444 C 620.652 910.516 621.463 910.558 622.285 910.558 C 637.185 910.558 649.265 898.588 649.265 883.822 C 649.265 883.18 649.234 882.544 649.189 881.913 Z " fill-rule="evenodd" fill="rgb(255,255,255)"/></g></svg>