<?xml version="1.0" encoding="UTF-8" standalone="no"?><!-- Generator: Gravit.io --><svg xmlns="http://www.w3.org/2000/svg" xmlns:xlink="http://www.w3.org/1999/xlink" style="isolation:isolate" viewBox="535.606 994.155 135.787 135.005" width="135.787pt" height="135.005pt"><g><path d=" M 671.394 1061.66 C 671.394 1098.93 640.996 1129.16 603.5 1129.16 C 566.004 1129.16 535.606 1098.93 535.606 1061.66 C 535.606 1024.38 566.004 994.155 603.5 994.155 C 640.996 994.155 671.394 1024.38 671.394 1061.66 Z " fill-rule="evenodd" fill="rgb(1,2,1)"/><path d=" M 607.451 1033.94 C 606.42 1034.28 606.077 1034.63 606.077 1035.65 L 606.077 1079.03 C 606.077 1079.71 606.763 1080.39 607.451 1080.73 L 645.583 1080.73 C 653.141 1080.73 659.324 1074.59 659.324 1067.07 C 659.324 1059.56 653.141 1053.41 645.583 1053.41 C 643.865 1053.41 641.803 1053.75 640.43 1054.44 C 639.398 1042.14 629.092 1032.58 616.383 1032.58 C 615.696 1032.58 615.352 1032.58 614.665 1032.58 C 612.26 1032.58 609.855 1033.26 607.451 1033.94 Z  M 601.954 1037.02 L 601.267 1067.75 L 601.954 1079.03 C 601.954 1079.71 602.641 1080.39 603.328 1080.39 C 604.015 1080.39 604.702 1079.71 604.702 1079.03 L 605.39 1067.75 L 604.702 1037.02 C 604.702 1036.33 604.015 1035.65 603.328 1035.65 L 602.985 1035.65 C 602.298 1035.65 601.954 1036.33 601.954 1037.02 Z  M 597.145 1039.41 L 596.457 1067.75 L 597.145 1079.03 C 597.145 1079.71 597.832 1080.39 598.519 1080.39 C 599.206 1080.39 599.893 1079.71 599.893 1079.03 L 600.58 1067.75 L 599.893 1039.41 C 599.893 1038.72 599.206 1038.04 598.519 1038.04 C 597.832 1038.04 597.145 1038.72 597.145 1039.41 Z  M 583.403 1042.48 L 582.716 1067.75 L 583.403 1079.37 C 583.403 1080.05 583.746 1080.39 584.433 1080.39 C 585.12 1080.39 585.464 1080.05 585.464 1079.37 L 586.151 1067.75 L 585.464 1042.48 C 585.464 1041.8 584.777 1041.46 584.433 1041.46 C 584.09 1041.46 583.403 1041.8 583.403 1042.48 Z  M 587.869 1043.16 L 587.182 1067.75 L 587.869 1079.37 C 587.869 1080.05 588.556 1080.73 589.243 1080.73 C 589.93 1080.73 590.617 1080.05 590.617 1079.37 L 591.304 1067.75 L 590.617 1043.16 C 590.617 1042.48 589.93 1041.8 589.243 1041.8 C 588.556 1041.8 587.869 1042.48 587.869 1043.16 Z  M 578.938 1043.16 L 578.251 1067.75 L 578.938 1079.37 C 578.938 1080.05 579.281 1080.39 579.968 1080.39 C 580.656 1080.39 580.999 1080.05 580.999 1079.37 L 581.685 1067.75 L 580.999 1043.16 C 580.999 1042.48 580.656 1042.14 579.968 1042.14 C 579.281 1042.14 578.938 1042.82 578.938 1043.16 Z  M 592.679 1044.19 L 591.992 1067.75 L 592.679 1079.03 C 592.679 1079.71 593.366 1080.39 594.053 1080.39 C 594.74 1080.39 595.427 1079.71 595.427 1079.03 L 596.114 1067.75 L 595.427 1043.85 C 595.427 1043.16 594.74 1042.48 594.053 1042.48 C 593.022 1042.82 592.679 1043.16 592.679 1044.19 Z  M 574.472 1045.21 L 573.785 1067.75 L 574.472 1079.71 C 574.472 1080.39 574.815 1080.73 575.502 1080.73 C 575.846 1080.73 576.533 1080.39 576.533 1079.71 L 577.564 1067.75 L 576.533 1045.21 C 576.533 1044.53 576.19 1044.19 575.502 1044.19 C 574.815 1044.19 574.472 1044.53 574.472 1045.21 Z  M 570.006 1049.31 L 568.975 1067.75 L 570.006 1079.71 C 570.006 1080.05 570.349 1080.39 570.693 1080.39 C 571.38 1080.39 571.724 1080.05 571.724 1079.71 L 572.754 1067.75 L 571.724 1049.31 C 571.724 1048.97 571.38 1048.63 571.037 1048.63 C 570.349 1048.63 570.006 1048.97 570.006 1049.31 Z  M 561.074 1055.46 L 560.043 1067.75 L 561.074 1079.37 C 561.074 1079.71 561.418 1080.05 561.761 1080.05 C 562.105 1080.05 562.448 1079.71 562.448 1079.37 L 563.479 1067.75 L 562.448 1055.46 C 562.448 1055.12 562.105 1054.78 561.761 1054.78 C 561.418 1054.78 561.418 1055.12 561.074 1055.46 Z  M 556.952 1055.8 L 555.921 1067.75 L 556.952 1079.03 C 556.952 1079.37 557.295 1079.71 557.639 1079.71 C 557.639 1079.71 557.982 1079.37 557.982 1079.03 L 559.013 1067.75 L 557.982 1055.8 C 557.982 1055.46 557.639 1055.12 557.295 1055.12 C 557.295 1055.46 556.952 1055.46 556.952 1055.8 Z  M 565.54 1056.48 L 564.853 1067.75 L 565.54 1079.71 C 565.54 1080.05 565.884 1080.39 566.227 1080.39 C 566.571 1080.39 566.914 1080.05 566.914 1079.71 L 568.288 1067.75 L 567.258 1056.48 C 567.258 1056.14 566.914 1055.8 566.571 1055.8 C 565.884 1055.8 565.54 1056.14 565.54 1056.48 Z  M 552.485 1057.85 L 551.455 1067.75 L 552.485 1077.66 C 552.485 1078 552.829 1078 552.829 1078 C 553.172 1078 553.172 1077.66 553.172 1077.66 L 554.547 1067.75 L 553.172 1057.85 C 553.172 1057.51 552.829 1057.51 552.829 1057.51 L 552.829 1057.51 L 552.485 1057.85 Z  M 548.363 1061.61 L 547.676 1067.75 L 548.363 1073.9 C 548.363 1074.24 548.706 1074.24 548.706 1074.24 C 549.05 1074.24 549.05 1073.9 549.05 1073.9 L 550.081 1067.75 L 549.05 1061.61 C 549.05 1061.27 548.706 1061.27 548.706 1061.27 C 548.706 1061.27 548.363 1061.27 548.363 1061.61 Z " fill="rgb(255,255,255)"/></g></svg>