<?xml version="1.0" encoding="UTF-8" standalone="no"?><!-- Generator: Gravit.io --><svg xmlns="http://www.w3.org/2000/svg" xmlns:xlink="http://www.w3.org/1999/xlink" style="isolation:isolate" viewBox="310.134 994.155 135.787 135.005" width="135.787pt" height="135.005pt"><g><path d=" M 378.027 994.155 C 340.531 994.155 310.134 1024.38 310.134 1061.66 C 310.134 1098.93 340.531 1129.16 378.027 1129.16 C 415.524 1129.16 445.921 1098.93 445.921 1061.66 C 445.921 1024.38 415.524 994.155 378.027 994.155 Z " fill="rgb(1,2,1)"/><path d=" M 411.077 1034.24 C 410.818 1033.48 410.508 1033.28 410.024 1033.09 C 408.966 1032.7 407.173 1033.29 407.173 1033.29 C 407.173 1033.29 343.72 1055.97 340.095 1058.48 C 339.315 1059.02 339.053 1059.34 338.924 1059.71 C 338.297 1061.49 340.249 1062.28 340.249 1062.28 L 356.604 1067.58 C 356.604 1067.58 357.214 1067.67 357.431 1067.53 C 361.152 1065.19 394.864 1044.03 396.808 1043.32 C 397.115 1043.23 397.342 1043.33 397.282 1043.54 C 396.504 1046.26 367.223 1072.13 367.223 1072.13 C 367.223 1072.13 367.111 1072.27 367.041 1072.43 L 367.002 1072.41 L 365.477 1088.54 C 365.477 1088.54 364.837 1093.48 369.807 1088.54 C 373.313 1085.05 376.706 1082.13 378.404 1080.72 C 384.027 1084.58 390.079 1088.85 392.691 1091.08 C 394.003 1092.2 395.1 1092.38 396.004 1092.35 C 398.483 1092.26 399.175 1089.55 399.175 1089.55 C 399.175 1089.55 410.738 1043.28 411.124 1037.08 C 411.163 1036.47 411.215 1036.09 411.219 1035.67 C 411.226 1035.09 411.172 1034.51 411.077 1034.24 Z " fill="rgb(255,255,255)"/></g></svg>