<?xml version="1.0" encoding="UTF-8" standalone="no"?><!-- Generator: Gravit.io --><svg xmlns="http://www.w3.org/2000/svg" xmlns:xlink="http://www.w3.org/1999/xlink" style="isolation:isolate" viewBox="310.134 404.964 135.787 135" width="135.787pt" height="135pt"><g><path d=" M 445.921 472.464 C 445.921 509.743 415.524 539.964 378.027 539.964 C 340.531 539.964 310.134 509.743 310.134 472.464 C 310.134 435.185 340.531 404.964 378.027 404.964 C 415.524 404.964 445.921 435.185 445.921 472.464 Z " fill="rgb(1,2,1)"/><path d=" M 416.071 450.157 C 416.072 449.765 416.06 449.75 415.648 449.754 C 414.653 449.763 413.669 449.645 412.691 449.498 C 409.139 448.965 397.617 442.956 395.668 433.126 C 395.628 432.934 395.194 430.495 395.199 429.456 C 395.202 428.991 395.193 428.99 394.732 428.983 C 394.626 428.981 394.519 428.983 394.412 428.983 C 389.904 428.983 385.395 428.98 380.886 428.984 C 379.978 428.985 380.105 428.872 380.105 429.778 C 380.102 449.218 380.102 468.659 380.106 488.1 C 380.106 488.825 380.085 489.549 379.958 490.26 C 379.278 494.021 377.339 496.966 374.059 498.977 C 371.218 500.719 368.133 501.216 364.858 500.572 C 363.826 500.369 362.857 499.982 361.888 499.6 C 361.808 499.528 361.73 499.457 361.651 499.386 C 361.326 499.114 360.966 498.89 360.616 498.649 C 356.442 495.775 354.463 491.786 355.065 486.797 C 355.677 481.736 358.606 478.3 363.431 476.53 C 364.87 476.002 366.387 475.784 367.926 475.866 C 368.917 475.918 369.903 476.043 370.864 476.315 C 371.196 476.409 371.376 476.292 371.393 475.942 C 371.399 475.818 371.402 475.695 371.402 475.572 C 371.403 472.082 371.271 464.459 371.253 464.442 C 371.26 463.437 371.26 462.432 371.278 461.428 C 371.284 461.138 371.139 461.088 370.894 461.059 C 369.075 460.844 367.257 460.804 365.427 460.937 C 362.9 461.121 360.45 461.636 358.07 462.488 C 354.272 463.846 350.938 465.945 348.061 468.748 C 345.589 471.155 343.647 473.938 342.223 477.075 C 340.859 480.077 340.078 483.229 339.863 486.509 C 339.768 487.932 339.787 489.36 339.919 490.788 C 340.102 492.761 340.479 494.691 341.082 496.576 C 342.817 501.993 345.969 506.437 350.443 509.962 C 350.898 510.321 351.335 510.714 351.88 510.947 L 351.88 510.947 C 352.108 511.148 352.336 511.35 352.565 511.551 C 353.289 512.094 354.064 512.558 354.875 512.956 C 359.886 515.417 365.165 516.417 370.729 515.742 C 377.948 514.865 383.963 511.685 388.697 506.205 C 393.154 501.047 395.32 494.992 395.359 488.224 C 395.415 478.542 395.372 468.86 395.378 459.178 C 395.378 458.947 395.244 458.619 395.501 458.503 C 395.701 458.412 395.902 458.676 396.09 458.799 C 399.715 461.166 403.623 462.877 407.855 463.84 C 410.319 464.4 412.807 464.74 415.341 464.736 C 416.14 464.735 416.246 464.695 416.247 463.908 C 416.252 460.469 416.07 451.07 416.071 450.157 Z " fill="rgb(255,255,255)"/></g></svg>