<?xml version="1.0" encoding="UTF-8" standalone="no"?><!-- Generator: Gravit.io --><svg xmlns="http://www.w3.org/2000/svg" xmlns:xlink="http://www.w3.org/1999/xlink" style="isolation:isolate" viewBox="0 0 1200 1200" width="1200pt" height="1200pt"><g><g><g><path d=" M 603.5 207.946 C 640.996 207.946 671.394 238.166 671.394 275.446 C 671.394 312.725 640.996 342.946 603.5 342.946 C 566.004 342.946 535.606 312.725 535.606 275.446 C 535.606 238.166 566.004 207.946 603.5 207.946 Z " fill="rgb(1,2,1)"/></g></g></g><path d=" M 603.5 232.946 C 591.89 232.946 590.434 232.995 585.875 233.202 C 581.325 233.408 578.217 234.126 575.499 235.177 C 572.687 236.263 570.303 237.716 567.927 240.079 C 565.55 242.442 564.088 244.812 562.996 247.607 C 561.94 250.31 561.217 253.399 561.01 257.923 C 560.801 262.457 560.752 263.903 560.752 275.446 C 560.752 286.988 560.801 288.436 561.01 292.969 C 561.217 297.492 561.94 300.582 562.996 303.285 C 564.088 306.08 565.55 308.45 567.927 310.812 C 570.303 313.175 572.687 314.628 575.499 315.715 C 578.217 316.765 581.325 317.484 585.875 317.69 C 590.434 317.897 591.89 317.946 603.5 317.946 C 615.109 317.946 616.565 317.897 621.124 317.69 C 625.675 317.484 628.783 316.765 631.501 315.715 C 634.313 314.628 636.697 313.175 639.073 310.812 C 641.449 308.45 642.912 306.08 644.004 303.285 C 645.06 300.582 645.783 297.492 645.99 292.969 C 646.199 288.436 646.248 286.988 646.248 275.446 C 646.248 263.904 646.199 262.457 645.99 257.923 C 645.783 253.399 645.06 250.31 644.004 247.607 C 642.912 244.812 641.449 242.442 639.073 240.079 C 636.697 237.716 634.313 236.263 631.501 235.177 C 628.783 234.126 625.675 233.408 621.124 233.202 C 616.565 232.995 615.109 232.946 603.5 232.946 L 603.5 232.946 Z  M 603.5 240.604 C 614.914 240.604 616.266 240.647 620.774 240.851 C 624.941 241.041 627.204 241.733 628.711 242.315 C 630.707 243.086 632.131 244.007 633.627 245.494 C 635.122 246.981 636.049 248.397 636.824 250.38 C 637.41 251.878 638.106 254.128 638.297 258.272 C 638.502 262.754 638.545 264.098 638.545 275.446 C 638.545 286.794 638.502 288.138 638.297 292.62 C 638.106 296.763 637.41 299.014 636.824 300.511 C 636.049 302.495 635.122 303.911 633.627 305.398 C 632.131 306.885 630.707 307.806 628.711 308.577 C 627.204 309.159 624.941 309.852 620.774 310.04 C 616.266 310.245 614.915 310.288 603.5 310.288 C 592.085 310.288 590.733 310.245 586.226 310.04 C 582.059 309.852 579.795 309.159 578.289 308.577 C 576.293 307.806 574.869 306.885 573.373 305.398 C 571.878 303.911 570.951 302.495 570.176 300.511 C 569.59 299.014 568.894 296.763 568.703 292.62 C 568.498 288.138 568.455 286.794 568.455 275.446 C 568.455 264.098 568.498 262.754 568.703 258.272 C 568.894 254.128 569.59 251.878 570.176 250.38 C 570.951 248.397 571.877 246.981 573.373 245.494 C 574.869 244.007 576.293 243.086 578.289 242.315 C 579.795 241.733 582.059 241.041 586.226 240.851 C 590.734 240.647 592.086 240.604 603.5 240.604 Z " fill="rgb(255,255,255)"/><path d=" M 603.5 289.613 C 595.63 289.613 589.25 283.27 589.25 275.446 C 589.25 267.622 595.63 261.279 603.5 261.279 C 611.37 261.279 617.75 267.622 617.75 275.446 C 617.75 283.27 611.37 289.613 603.5 289.613 Z  M 603.5 253.622 C 591.377 253.622 581.549 263.393 581.549 275.446 C 581.549 287.499 591.377 297.27 603.5 297.27 C 615.623 297.27 625.451 287.499 625.451 275.446 C 625.451 263.393 615.623 253.622 603.5 253.622 Z " fill="rgb(255,255,255)"/><path d=" M 631.448 252.759 C 631.448 255.576 629.152 257.859 626.319 257.859 C 623.486 257.859 621.19 255.576 621.19 252.759 C 621.19 249.942 623.486 247.659 626.319 247.659 C 629.152 247.659 631.448 249.942 631.448 252.759 Z " fill="rgb(255,255,255)"/><g><g><g><g><g><g><g/></g></g></g></g></g></g><g><g><g><g/></g></g></g><g><path d=" M 444.628 275.446 C 444.628 312.725 414.23 342.946 376.734 342.946 C 339.237 342.946 308.84 312.725 308.84 275.446 C 308.84 238.166 339.237 207.946 376.734 207.946 C 414.23 207.946 444.628 238.166 444.628 275.446 Z " fill="rgb(1,2,1)"/><path d=" M 378.027 225.446 C 367.897 225.446 358.565 228.032 350.717 232.616 C 336.178 241.108 326.73 256.456 326.73 274.916 C 326.73 289.784 332.859 302.632 342.84 311.506 C 343.678 312.252 344.183 313.296 344.218 314.415 L 344.497 323.486 C 344.586 326.38 347.593 328.263 350.256 327.094 L 360.438 322.625 C 361.301 322.247 362.269 322.177 363.178 322.426 C 367.857 323.705 372.837 324.386 378.027 324.386 C 406.925 324.386 429.325 303.341 429.325 274.916 C 429.325 246.491 406.925 225.446 378.027 225.446 Z " fill-rule="evenodd" fill="rgb(255,255,255)"/><path d=" M 347.223 289.383 L 362.292 265.615 C 364.689 261.834 369.822 260.893 373.418 263.574 L 385.403 272.511 C 386.503 273.331 388.016 273.326 389.111 272.5 L 405.297 260.287 C 407.457 258.657 410.277 261.228 408.831 263.509 L 393.763 287.277 C 391.366 291.058 386.233 291.999 382.636 289.318 L 370.652 280.381 C 369.552 279.561 368.038 279.565 366.944 280.392 L 350.758 292.605 C 348.598 294.234 345.777 291.664 347.223 289.383 Z " fill-rule="evenodd" fill="rgb(1,2,1)"/></g><path d=" M 896.866 275.446 C 896.866 312.725 866.469 342.946 828.973 342.946 C 791.476 342.946 761.079 312.725 761.079 275.446 C 761.079 238.166 791.476 207.946 828.973 207.946 C 866.469 207.946 896.866 238.166 896.866 275.446 Z " fill="rgb(1,2,1)"/><path d=" M 850.801 283.02 C 849.725 282.485 844.434 279.897 843.448 279.54 C 842.461 279.184 841.744 279.005 841.026 280.076 C 840.309 281.146 838.246 283.556 837.619 284.27 C 836.991 284.983 836.363 285.073 835.287 284.537 C 834.211 284.002 830.744 282.873 826.633 279.228 C 823.434 276.393 821.274 272.89 820.646 271.819 C 820.019 270.748 820.579 270.169 821.118 269.636 C 821.602 269.157 822.194 268.387 822.732 267.762 C 823.271 267.138 823.45 266.691 823.808 265.978 C 824.168 265.264 823.988 264.639 823.718 264.104 C 823.45 263.568 821.297 258.304 820.401 256.162 C 819.527 254.077 818.641 254.359 817.979 254.326 C 817.352 254.295 816.634 254.289 815.917 254.289 C 815.2 254.289 814.034 254.556 813.047 255.627 C 812.061 256.698 809.28 259.285 809.28 264.55 C 809.28 269.814 813.137 274.9 813.675 275.614 C 814.213 276.328 821.263 287.132 832.058 291.765 C 834.626 292.867 836.631 293.525 838.194 294.018 C 840.772 294.832 843.119 294.717 844.972 294.442 C 847.039 294.135 851.339 291.854 852.237 289.355 C 853.134 286.857 853.134 284.716 852.864 284.27 C 852.595 283.824 851.877 283.556 850.801 283.02 Z  M 831.165 309.667 L 831.15 309.667 C 824.727 309.665 818.428 307.95 812.931 304.708 L 811.623 303.936 L 798.074 307.469 L 801.691 294.34 L 800.839 292.994 C 797.257 287.329 795.364 280.782 795.367 274.059 C 795.375 254.442 811.434 238.482 831.179 238.482 C 840.741 238.486 849.73 242.192 856.488 248.916 C 863.246 255.642 866.966 264.581 866.964 274.088 C 866.955 293.707 850.896 309.667 831.165 309.667 Z  M 861.632 243.807 C 853.501 235.715 842.686 231.257 831.165 231.252 C 807.425 231.252 788.104 250.454 788.095 274.057 C 788.092 281.601 790.075 288.965 793.844 295.457 L 787.733 317.639 L 810.565 311.686 C 816.856 315.097 823.939 316.894 831.147 316.897 L 831.165 316.897 C 831.167 316.897 831.164 316.897 831.165 316.897 C 854.902 316.897 874.225 297.693 874.235 274.091 C 874.239 262.653 869.764 251.897 861.632 243.807 Z " fill-rule="evenodd" fill="rgb(255,255,255)"/><path d=" M 1122.339 275.446 C 1122.339 312.725 1091.943 342.946 1054.445 342.946 C 1016.948 342.946 986.552 312.725 986.552 275.446 C 986.552 238.166 1016.948 207.946 1054.445 207.946 C 1091.943 207.946 1122.339 238.166 1122.339 275.446 Z " fill-rule="evenodd" fill="rgb(1,2,1)"/><path d=" M 1040.726 314.321 C 1073.888 314.321 1092.023 287.008 1092.023 263.324 C 1092.023 262.548 1092.003 261.775 1091.973 261.007 C 1095.493 258.477 1098.551 255.32 1100.965 251.727 C 1097.736 253.153 1094.256 254.115 1090.615 254.548 C 1094.337 252.33 1097.193 248.818 1098.541 244.633 C 1095.051 246.687 1091.198 248.18 1087.095 248.984 C 1083.795 245.5 1079.118 243.321 1073.928 243.321 C 1063.971 243.321 1055.904 251.348 1055.904 261.243 C 1055.904 262.65 1056.055 264.018 1056.366 265.33 C 1041.379 264.581 1028.102 257.449 1019.211 246.604 C 1017.662 249.251 1016.767 252.33 1016.767 255.612 C 1016.767 261.831 1019.945 267.32 1024.793 270.532 C 1021.836 270.441 1019.05 269.633 1016.626 268.289 C 1016.616 268.364 1016.616 268.439 1016.616 268.518 C 1016.616 277.199 1022.832 284.446 1031.08 286.09 C 1029.571 286.499 1027.972 286.72 1026.332 286.72 C 1025.165 286.72 1024.039 286.606 1022.943 286.397 C 1025.236 293.518 1031.895 298.7 1039.78 298.846 C 1033.614 303.653 1025.839 306.518 1017.39 306.518 C 1015.942 306.518 1014.504 306.436 1013.095 306.27 C 1021.072 311.353 1030.547 314.321 1040.726 314.321 Z " fill="rgb(255,255,255)"/><path d=" M 896.866 668.551 C 896.866 705.83 866.469 736.051 828.973 736.051 C 791.476 736.051 761.079 705.83 761.079 668.551 C 761.079 631.271 791.476 601.051 828.973 601.051 C 866.469 601.051 896.866 631.271 896.866 668.551 Z " fill-rule="evenodd" fill="rgb(1,2,1)"/><path d=" M 849.344 711.139 L 835.034 711.139 C 822.149 711.139 812.546 704.548 812.546 688.781 L 812.546 663.531 L 800.838 663.531 L 800.838 649.859 C 813.723 646.533 819.112 635.509 819.733 625.963 L 833.113 625.963 L 833.113 647.642 L 848.723 647.642 L 848.723 663.531 L 833.113 663.531 L 833.113 685.518 C 833.113 692.107 836.458 694.387 841.785 694.387 L 849.344 694.387 L 849.344 711.139 Z " fill="rgb(255,255,255)"/><path d=" M 152.611 404.853 C 115.084 404.853 84.661 435.1 84.661 472.409 C 84.661 501.043 102.557 525.508 127.835 535.349 C 127.22 530.011 126.717 521.782 128.059 515.944 C 129.29 510.662 136.001 482.361 136.001 482.361 C 136.001 482.361 133.987 478.302 133.987 472.353 C 133.987 462.957 139.468 455.951 146.29 455.951 C 152.107 455.951 154.903 460.288 154.903 465.458 C 154.903 471.241 151.212 479.915 149.255 487.977 C 147.633 494.705 152.666 500.209 159.321 500.209 C 171.401 500.209 180.685 487.532 180.685 469.295 C 180.685 453.115 168.997 441.828 152.275 441.828 C 132.925 441.828 121.572 456.229 121.572 471.13 C 121.572 476.912 123.809 483.14 126.605 486.531 C 127.164 487.198 127.22 487.81 127.053 488.477 C 126.549 490.59 125.374 495.205 125.151 496.15 C 124.871 497.374 124.144 497.651 122.859 497.04 C 114.357 493.092 109.044 480.804 109.044 470.852 C 109.044 449.557 124.592 429.985 153.953 429.985 C 177.497 429.985 195.841 446.665 195.841 469.017 C 195.841 492.313 181.076 511.051 160.607 511.051 C 153.729 511.051 147.242 507.493 145.06 503.267 C 145.06 503.267 141.649 516.167 140.811 519.336 C 139.3 525.229 135.162 532.569 132.366 537.073 C 138.742 539.019 145.452 540.075 152.498 540.075 C 190.024 540.075 220.448 509.828 220.448 472.52 C 220.56 435.1 190.137 404.853 152.611 404.853 Z " fill="rgb(1,2,1)"/><path d=" M 671.394 472.464 C 671.394 509.743 640.996 539.964 603.5 539.964 C 566.004 539.964 535.606 509.743 535.606 472.464 C 535.606 435.185 566.004 404.964 603.5 404.964 C 640.996 404.964 671.394 435.185 671.394 472.464 Z " fill="rgb(1,2,1)"/><path d=" M 594.447 485.964 L 594.447 458.964 L 617.966 472.464 L 594.447 485.964 Z  M 646.871 450.802 C 645.829 446.93 642.763 443.88 638.867 442.845 C 631.808 440.964 603.5 440.964 603.5 440.964 C 603.5 440.964 575.192 440.964 568.132 442.845 C 564.237 443.88 561.169 446.93 560.129 450.802 C 558.237 457.82 558.237 472.464 558.237 472.464 C 558.237 472.464 558.237 487.108 560.129 494.126 C 561.169 497.999 564.237 501.048 568.132 502.083 C 575.192 503.964 603.5 503.964 603.5 503.964 C 603.5 503.964 631.808 503.964 638.867 502.083 C 642.763 501.048 645.829 497.999 646.871 494.126 C 648.762 487.108 648.762 472.464 648.762 472.464 C 648.762 472.464 648.762 457.82 646.871 450.802 Z " fill="rgb(255,255,255)"/><path d=" M 1122.339 472.464 C 1122.339 509.743 1091.943 539.964 1054.445 539.964 C 1016.948 539.964 986.552 509.743 986.552 472.464 C 986.552 435.185 1016.948 404.964 1054.445 404.964 C 1091.943 404.964 1122.339 435.185 1122.339 472.464 Z " fill="rgb(1,2,1)"/><path d=" M 1038.231 463.375 C 1056.276 457.19 1059.354 441.079 1057.05 426.265 C 1057.05 425.73 1057.503 425.349 1057.966 425.501 C 1075.246 433.901 1094.679 452.227 1094.679 479.715 C 1094.679 500.789 1078.243 519.42 1054.355 519.42 C 1033.172 520.378 1015.218 504.079 1014.252 483.016 C 1013.618 469.064 1020.69 455.88 1032.699 448.638 C 1033.162 448.333 1033.775 448.638 1033.775 449.172 C 1034.007 451.998 1034.771 459.099 1037.919 463.375 L 1038.231 463.375 Z " fill-rule="evenodd" fill="rgb(255,255,255)"/><path d=" M 896.866 472.464 C 896.866 509.743 866.469 539.964 828.973 539.964 C 791.476 539.964 761.079 509.743 761.079 472.464 C 761.079 435.185 791.476 404.964 828.973 404.964 C 866.469 404.964 896.866 435.185 896.866 472.464 Z " fill="rgb(1,2,1)"/><path d=" M 834.226 463.255 C 835.341 462.01 836.26 460.745 837.406 459.672 C 840.926 456.373 845.091 454.708 849.953 454.749 C 852.626 454.771 855.268 454.963 857.844 455.704 C 863.737 457.398 867.162 461.431 868.795 467.154 C 870.02 471.446 870.245 475.853 870.253 480.273 C 870.269 489.598 870.226 498.922 870.246 508.247 C 870.248 509.12 870.003 509.349 869.138 509.341 C 864.307 509.302 859.474 509.301 854.642 509.343 C 853.793 509.35 853.609 509.088 853.612 508.29 C 853.639 499.417 853.645 490.545 853.617 481.672 C 853.609 479.449 853.467 477.227 852.839 475.065 C 851.683 471.083 848.817 469.054 844.62 469.274 C 838.89 469.575 835.911 472.396 835.181 478.188 C 835.006 479.572 834.923 480.956 834.924 482.35 C 834.932 490.979 834.915 499.608 834.947 508.236 C 834.95 509.097 834.734 509.351 833.85 509.343 C 828.984 509.3 824.115 509.305 819.249 509.339 C 818.47 509.345 818.243 509.136 818.244 508.351 C 818.267 491.268 818.267 474.184 818.243 457.1 C 818.242 456.255 818.521 456.059 819.325 456.065 C 823.947 456.099 828.569 456.103 833.19 456.062 C 834.041 456.055 834.26 456.328 834.241 457.129 C 834.194 459.17 834.226 461.213 834.226 463.255 Z " fill="rgb(254,254,254)"/><path d=" M 807.753 482.779 C 807.753 491.23 807.738 499.682 807.773 508.134 C 807.777 509.073 807.541 509.357 806.564 509.346 C 801.735 509.293 796.904 509.306 792.074 509.339 C 791.3 509.345 791.067 509.152 791.068 508.357 C 791.091 491.245 791.089 474.133 791.072 457.021 C 791.071 456.313 791.244 456.061 792 456.065 C 796.9 456.097 801.8 456.106 806.699 456.06 C 807.641 456.05 807.77 456.414 807.768 457.216 C 807.745 465.737 807.753 474.258 807.753 482.779 Z " fill="rgb(254,254,254)"/><path d=" M 809.085 439.108 C 809.089 444.414 804.757 448.737 799.433 448.739 C 794.176 448.741 789.807 444.414 789.79 439.19 C 789.772 433.909 794.139 429.56 799.452 429.565 C 804.73 429.57 809.079 433.879 809.085 439.108 Z " fill="rgb(254,254,254)"/><path d=" M 220.448 1061.66 C 220.448 1098.93 190.051 1129.16 152.555 1129.16 C 115.058 1129.16 84.661 1098.93 84.661 1061.66 C 84.661 1024.38 115.058 994.155 152.555 994.155 C 190.051 994.155 220.448 1024.38 220.448 1061.66 Z " fill-rule="evenodd" fill="rgb(1,2,1)"/><path d=" M 105.243 1061.8 C 105.243 1050.2 114.697 1040.8 126.359 1040.8 C 138.021 1040.8 147.475 1050.2 147.475 1061.8 C 147.475 1073.39 138.021 1082.79 126.359 1082.79 C 114.697 1082.79 105.243 1073.39 105.243 1061.8 Z " fill-rule="evenodd" fill="rgb(255,255,255)"/><path d=" M 157.731 1061.8 C 157.731 1050.2 167.185 1040.8 178.847 1040.8 C 190.509 1040.8 199.963 1050.2 199.963 1061.8 C 199.963 1073.39 190.509 1082.79 178.847 1082.79 C 167.185 1082.79 157.731 1073.39 157.731 1061.8 Z " fill-rule="evenodd" fill="rgb(255,255,255)"/><path d=" M 671.394 668.551 C 671.394 705.83 640.996 736.051 603.5 736.051 C 566.004 736.051 535.606 705.83 535.606 668.551 C 535.606 631.271 566.004 601.051 603.5 601.051 C 640.996 601.051 671.394 631.271 671.394 668.551 Z " fill-rule="evenodd" fill="rgb(1,2,1)"/><path d=" M 626.885 652.629 C 626.865 654.484 626.772 656.337 626.633 658.188 C 626.609 658.503 626.601 658.819 626.596 659.136 C 626.585 659.823 626.982 660.103 627.669 660.041 C 627.92 660.018 628.171 659.952 628.41 659.869 C 629.088 659.632 629.762 659.381 630.434 659.127 C 631.563 658.7 632.692 658.277 633.87 658.002 C 634.661 657.817 635.454 657.725 636.261 657.908 C 638.093 658.325 639.041 660.134 638.334 661.868 C 638.147 662.324 637.869 662.718 637.542 663.081 C 637.073 663.603 636.534 664.046 635.953 664.437 C 635.268 664.897 634.576 665.346 633.886 665.798 C 632.736 666.552 631.582 667.299 630.436 668.061 C 629.961 668.377 629.498 668.711 629.044 669.059 C 628.794 669.251 628.561 669.472 628.35 669.705 C 627.919 670.181 627.719 670.748 627.76 671.39 C 627.799 672.001 627.909 672.6 628.079 673.189 C 628.625 675.086 629.457 676.854 630.471 678.541 C 632.346 681.649 634.757 684.29 637.578 686.571 C 639.973 688.51 642.585 690.104 645.354 691.453 C 645.6 691.573 645.843 691.706 646.079 691.844 C 646.264 691.951 646.421 692.096 646.544 692.271 C 646.73 692.535 646.755 692.811 646.597 693.103 C 646.462 693.35 646.266 693.539 646.054 693.714 C 645.741 693.97 645.391 694.169 645.038 694.36 C 643.466 695.211 641.799 695.813 640.075 696.275 C 639.34 696.473 638.608 696.682 637.877 696.896 C 637.368 697.046 636.89 697.269 636.419 697.512 C 635.624 697.921 635.174 698.572 635.006 699.427 C 634.912 699.902 634.856 700.384 634.77 700.861 C 634.553 702.061 634.119 702.503 632.931 702.706 C 632.514 702.777 632.09 702.821 631.667 702.844 C 630.609 702.902 629.548 702.93 628.49 702.989 C 626.091 703.124 623.732 703.491 621.441 704.236 C 620.47 704.553 619.543 704.963 618.66 705.467 C 617.723 706.001 616.799 706.558 615.875 707.113 C 614.404 707.996 612.913 708.835 611.307 709.455 C 609.517 710.146 607.668 710.557 605.755 710.729 C 604.143 710.874 602.534 710.853 600.93 710.674 C 598.528 710.406 596.251 709.709 594.098 708.613 C 593.098 708.104 592.134 707.534 591.176 706.952 C 590.469 706.524 589.762 706.101 589.052 705.681 C 587.36 704.681 585.531 704.037 583.614 703.623 C 581.871 703.246 580.105 703.035 578.322 702.968 C 577.39 702.933 576.457 702.894 575.526 702.84 C 574.998 702.809 574.473 702.742 573.957 702.607 C 573.233 702.418 572.77 701.98 572.621 701.242 C 572.538 700.829 572.473 700.413 572.402 699.998 C 572.388 699.915 572.384 699.831 572.371 699.747 C 572.215 698.644 571.667 697.835 570.621 697.365 C 569.982 697.078 569.327 696.845 568.653 696.658 C 567.491 696.337 566.318 696.054 565.18 695.649 C 564.181 695.294 563.213 694.87 562.282 694.366 C 562.003 694.215 561.733 694.048 561.47 693.871 C 561.295 693.753 561.129 693.617 560.983 693.467 C 560.442 692.907 560.488 692.399 561.108 691.919 C 561.413 691.684 561.762 691.528 562.104 691.362 C 564.528 690.182 566.825 688.796 568.964 687.157 C 572.016 684.821 574.628 682.081 576.651 678.808 C 577.732 677.061 578.614 675.222 579.188 673.245 C 579.371 672.615 579.498 671.979 579.524 671.32 C 579.549 670.671 579.328 670.124 578.896 669.65 C 578.638 669.368 578.344 669.127 578.037 668.899 C 577.155 668.242 576.236 667.638 575.315 667.037 C 574.145 666.275 572.97 665.52 571.799 664.76 C 571.213 664.378 570.65 663.967 570.14 663.486 C 569.769 663.137 569.438 662.756 569.174 662.317 C 568.62 661.397 568.581 660.446 568.999 659.472 C 569.288 658.8 569.787 658.333 570.472 658.067 C 571.225 657.776 572.001 657.75 572.788 657.88 C 573.711 658.031 574.599 658.313 575.475 658.629 C 576.371 658.951 577.258 659.299 578.149 659.633 C 578.564 659.788 578.982 659.942 579.424 660.01 C 579.529 660.025 579.635 660.057 579.738 660.054 C 580.252 660.038 580.677 659.871 580.673 659.188 C 580.669 658.619 580.642 658.05 580.603 657.482 C 580.394 654.409 580.312 651.332 580.438 648.255 C 580.52 646.295 580.724 644.347 581.163 642.429 C 581.776 639.762 582.891 637.336 584.556 635.149 C 587.629 631.113 591.686 628.558 596.548 627.195 C 599.202 626.452 601.915 626.206 604.665 626.293 C 607.572 626.385 610.388 626.92 613.099 627.967 C 615.673 628.96 618.021 630.336 620.045 632.21 C 622.597 634.573 624.564 637.332 625.63 640.675 C 626.112 642.186 626.417 643.732 626.606 645.304 C 626.899 647.738 626.91 650.183 626.885 652.629 Z " fill="rgb(255,255,255)"/><path d=" M 220.448 864.637 C 220.448 901.916 190.051 932.137 152.555 932.137 C 115.058 932.137 84.661 901.916 84.661 864.637 C 84.661 827.357 115.058 797.137 152.555 797.137 C 190.051 797.137 220.448 827.357 220.448 864.637 Z " fill-rule="evenodd" fill="rgb(1,2,1)"/><path d=" M 181.955 872.354 C 179.746 872.354 177.955 870.572 177.955 868.376 C 177.955 866.18 179.746 864.398 181.955 864.398 C 184.165 864.398 185.956 866.18 185.956 868.376 C 185.956 870.572 184.165 872.354 181.955 872.354 Z  M 162.461 872.354 C 160.251 872.354 158.461 870.572 158.461 868.376 C 158.461 866.18 160.251 864.398 162.461 864.398 C 164.67 864.398 166.461 866.18 166.461 868.376 C 166.461 870.572 164.67 872.354 162.461 872.354 Z  M 201.197 874.178 C 200.866 872.652 200.683 871.078 200.184 869.609 C 198.145 863.6 194.127 859.159 188.706 855.975 C 181.606 851.804 173.907 850.531 165.814 851.85 C 158.554 853.033 152.296 856.176 147.356 861.728 C 140.661 869.254 139.682 879.825 145.168 888.251 C 150.623 896.627 158.814 900.465 168.526 901.488 C 173.132 901.974 177.637 901.241 182.091 900.096 C 182.495 899.992 183.027 899.996 183.389 900.175 C 185.589 901.265 187.759 902.418 189.937 903.553 C 190.756 903.979 191.572 904.416 192.534 904.924 C 192.447 904.619 192.413 904.48 192.369 904.345 C 191.588 901.92 190.821 899.49 190.01 897.075 C 189.849 896.595 189.866 896.309 190.32 896.012 C 190.933 895.611 191.502 895.139 192.072 894.676 C 196.127 891.385 199.116 887.359 200.533 882.295 C 200.897 880.993 201.074 879.64 201.338 878.31 C 201.338 877.098 201.338 875.885 201.338 874.673 C 201.29 874.508 201.233 874.345 201.197 874.178 Z " fill="rgb(255,255,255)"/><path d=" M 127.15 848.89 C 124.378 848.89 122.131 846.655 122.131 843.899 C 122.131 841.144 124.378 838.909 127.15 838.909 C 129.922 838.909 132.17 841.144 132.17 843.899 C 132.17 846.655 129.922 848.89 127.15 848.89 Z  M 151.596 838.909 C 154.369 838.909 156.616 841.144 156.616 843.899 C 156.616 846.655 154.369 848.89 151.596 848.89 C 148.824 848.89 146.578 846.655 146.578 843.899 C 146.578 841.144 148.824 838.909 151.596 838.909 Z  M 140.319 871.298 C 141.822 864.697 145.687 859.658 151.124 855.782 C 157.636 851.139 165.021 849.332 172.958 849.497 C 173.461 849.507 173.964 849.498 174.474 849.498 C 174.48 849.391 174.502 849.312 174.485 849.243 C 174.317 848.584 174.171 847.917 173.965 847.27 C 171.243 838.713 165.523 832.664 157.634 828.688 C 147.965 823.816 137.795 823.136 127.437 826.204 C 119.287 828.619 112.594 833.178 107.972 840.398 C 104.481 845.853 103.092 851.833 104.085 858.271 C 105.047 864.511 108.007 869.737 112.544 874.085 C 114.163 875.638 115.96 877.008 117.721 878.501 C 116.623 881.76 115.491 885.125 114.292 888.686 C 114.839 888.405 115.155 888.248 115.467 888.084 C 118.781 886.329 122.101 884.586 125.4 882.805 C 125.978 882.493 126.468 882.434 127.106 882.63 C 131.034 883.843 135.07 884.411 139.177 884.499 C 139.773 884.512 140.369 884.501 141.059 884.501 C 140.927 884.041 140.842 883.73 140.751 883.423 C 139.566 879.418 139.392 875.363 140.319 871.298 Z " fill="rgb(255,255,255)"/><path d=" M 896.866 864.637 C 896.866 901.916 866.469 932.137 828.973 932.137 C 791.476 932.137 761.079 901.916 761.079 864.637 C 761.079 827.357 791.476 797.137 828.973 797.137 C 866.469 797.137 896.866 827.357 896.866 864.637 Z " fill="rgb(1,2,1)"/><path d=" M 844.532 878.7 C 840.632 878.7 837.46 875.547 837.46 871.67 C 837.46 867.792 840.632 864.637 844.532 864.637 C 848.431 864.637 851.604 867.792 851.604 871.67 C 851.604 875.547 848.431 878.7 844.532 878.7 Z  M 845.777 890.248 C 840.95 895.04 831.7 895.413 828.981 895.413 C 826.261 895.413 817.01 895.04 812.189 890.247 C 811.474 889.536 811.474 888.382 812.189 887.67 C 812.904 886.959 814.066 886.959 814.782 887.671 C 817.824 890.695 824.333 891.769 828.981 891.769 C 833.63 891.769 840.139 890.695 843.187 887.67 C 843.904 886.959 845.064 886.96 845.779 887.671 C 846.494 888.384 846.493 889.537 845.777 890.248 Z  M 806.341 871.669 C 806.341 867.792 809.515 864.637 813.416 864.637 C 817.314 864.637 820.486 867.792 820.486 871.669 C 820.486 875.545 817.314 878.699 813.416 878.699 C 809.515 878.699 806.341 875.545 806.341 871.669 Z  M 874.224 864.637 C 874.224 859.2 869.791 854.793 864.324 854.793 C 861.653 854.793 859.236 855.849 857.455 857.556 C 850.689 852.699 841.362 849.563 830.977 849.203 L 835.487 828.106 L 850.223 831.221 C 850.403 834.945 853.471 837.918 857.262 837.918 C 861.167 837.918 864.334 834.771 864.334 830.887 C 864.334 827.004 861.167 823.855 857.262 823.855 C 854.484 823.855 852.104 825.463 850.947 827.78 L 834.493 824.303 C 834.035 824.204 833.556 824.293 833.163 824.548 C 832.769 824.802 832.493 825.201 832.395 825.656 L 827.359 849.197 C 816.821 849.487 807.346 852.628 800.492 857.537 C 798.713 855.841 796.304 854.793 793.645 854.793 C 788.176 854.793 783.743 859.2 783.743 864.637 C 783.743 868.637 786.147 872.072 789.593 873.612 C 789.44 874.591 789.357 875.584 789.357 876.59 C 789.357 891.734 807.089 904.012 828.962 904.012 C 850.834 904.012 868.566 891.734 868.566 876.59 C 868.566 875.59 868.484 874.604 868.334 873.632 C 871.802 872.101 874.224 868.652 874.224 864.637 Z " fill="rgb(255,255,255)"/><path d=" M 1122.339 864.637 C 1122.339 901.916 1091.943 932.137 1054.445 932.137 C 1016.948 932.137 986.552 901.916 986.552 864.637 C 986.552 827.357 1016.948 797.137 1054.445 797.137 C 1091.943 797.137 1122.339 827.357 1122.339 864.637 Z " fill-rule="evenodd" fill="rgb(1,2,1)"/><path d=" M 1078.394 900.049 C 1077.952 897.446 1075.668 884.973 1070.046 869.626 C 1083.514 867.511 1095.302 870.981 1096.771 871.47 C 1094.92 883.347 1088.05 893.596 1078.394 900.049 Z  M 1054.445 907.37 C 1044.518 907.37 1035.355 904.008 1028.102 898.368 C 1028.867 896.795 1037.587 880.093 1061.808 871.687 C 1061.919 871.633 1061.969 871.633 1062.08 871.578 C 1068.135 887.143 1070.589 900.212 1071.243 903.953 C 1066.063 906.177 1060.39 907.37 1054.445 907.37 Z  M 1011.466 864.691 C 1011.466 864.257 1011.466 863.823 1011.466 863.39 C 1013.317 863.443 1034.158 863.715 1055.592 857.315 C 1056.849 859.702 1057.986 862.143 1059.082 864.583 C 1058.539 864.745 1057.936 864.908 1057.392 865.07 C 1035.244 872.175 1023.466 891.589 1022.48 893.216 C 1015.66 885.678 1011.466 875.646 1011.466 864.691 Z  M 1036.169 826.025 C 1037.316 827.544 1044.95 838.118 1052.102 850.7 C 1032.025 856.015 1014.302 855.906 1012.391 855.906 C 1015.167 842.674 1024.17 831.665 1036.169 826.025 Z  M 1054.445 822.012 C 1065.359 822.012 1075.336 826.079 1082.92 832.75 C 1082.156 833.834 1075.668 842.457 1060.39 848.151 C 1053.359 835.299 1045.554 824.778 1044.357 823.151 C 1047.575 822.392 1050.955 822.012 1054.445 822.012 Z  M 1087.668 837.685 C 1093.663 844.951 1097.264 854.225 1097.374 864.257 C 1095.956 863.986 1081.774 861.112 1067.481 862.901 C 1067.159 862.196 1066.877 861.438 1066.555 860.678 C 1065.68 858.617 1064.705 856.502 1063.719 854.496 C 1079.541 848.097 1086.733 838.878 1087.668 837.685 Z  M 1054.445 814.637 C 1026.684 814.637 1004.154 837.034 1004.154 864.637 C 1004.154 892.24 1026.684 914.637 1054.445 914.637 C 1082.156 914.637 1104.737 892.24 1104.737 864.637 C 1104.737 837.034 1082.156 814.637 1054.445 814.637 Z " fill-rule="evenodd" fill="rgb(255,255,255)"/><path d=" M 896.866 1061.66 C 896.866 1098.93 866.469 1129.16 828.973 1129.16 C 791.476 1129.16 761.079 1098.93 761.079 1061.66 C 761.079 1024.38 791.476 994.155 828.973 994.155 C 866.469 994.155 896.866 1024.38 896.866 1061.66 Z " fill-rule="evenodd" fill="rgb(0,0,0)"/><path d=" M 809.617 1079.78 C 810.854 1079.78 812.027 1079.67 813.132 1079.42 C 814.252 1079.18 815.247 1078.8 816.085 1078.22 C 816.923 1077.68 817.617 1076.92 818.122 1075.97 C 818.628 1075.02 818.87 1073.79 818.87 1072.3 C 818.87 1069.38 818.045 1067.31 816.403 1066.05 C 814.758 1064.82 812.566 1064.2 809.869 1064.2 L 796.244 1064.2 L 796.244 1079.78 L 809.617 1079.78 Z  M 808.924 1055.69 C 811.145 1055.69 812.984 1055.17 814.44 1054.1 C 815.882 1053.06 816.581 1051.33 816.581 1048.96 C 816.581 1047.64 816.348 1046.55 815.882 1045.71 C 815.399 1044.87 814.758 1044.2 813.95 1043.74 C 813.149 1043.26 812.243 1042.93 811.192 1042.75 C 810.16 1042.55 809.077 1042.47 807.969 1042.47 L 796.244 1042.47 L 796.244 1055.69 L 808.924 1055.69 Z  M 810.546 1032.83 C 813.269 1032.83 815.726 1033.06 817.972 1033.55 C 820.204 1034.02 822.111 1034.8 823.721 1035.88 C 825.306 1036.96 826.548 1038.39 827.436 1040.2 C 828.304 1041.98 828.738 1044.2 828.738 1046.84 C 828.738 1049.69 828.087 1052.07 826.788 1053.97 C 825.476 1055.87 823.552 1057.42 820.979 1058.64 C 824.483 1059.64 827.077 1061.4 828.797 1063.9 C 830.526 1066.43 831.373 1069.45 831.373 1072.99 C 831.373 1075.86 830.819 1078.33 829.715 1080.41 C 828.601 1082.51 827.084 1084.22 825.214 1085.53 C 823.329 1086.86 821.162 1087.83 818.737 1088.47 C 816.339 1089.1 813.849 1089.42 811.299 1089.42 L 783.71 1089.42 L 783.71 1032.83 L 810.546 1032.83 Z " fill="rgb(255,255,255)"/><path d=" M 862.244 1058.06 C 860.899 1056.58 858.621 1055.78 855.84 1055.78 C 854.031 1055.78 852.534 1056.09 851.335 1056.7 C 850.163 1057.31 849.204 1058.07 848.47 1058.96 C 847.738 1059.87 847.241 1060.82 846.952 1061.85 C 846.66 1062.84 846.487 1063.75 846.434 1064.55 L 864.853 1064.55 C 864.582 1061.68 863.594 1059.56 862.244 1058.06 Z  M 849.238 1079.59 C 850.932 1081.24 853.383 1082.07 856.558 1082.07 C 858.841 1082.07 860.814 1081.49 862.47 1080.35 C 864.11 1079.21 865.108 1077.99 865.494 1076.72 L 875.463 1076.72 C 873.861 1081.65 871.43 1085.17 868.114 1087.29 C 864.836 1089.42 860.838 1090.48 856.18 1090.48 C 852.934 1090.48 850.013 1089.96 847.389 1088.93 C 844.767 1087.89 842.576 1086.43 840.733 1084.52 C 838.937 1082.61 837.542 1080.35 836.548 1077.69 C 835.565 1075.05 835.069 1072.13 835.069 1068.96 C 835.069 1065.9 835.583 1063.03 836.59 1060.39 C 837.619 1057.74 839.039 1055.44 840.907 1053.52 C 842.78 1051.59 845 1050.07 847.585 1048.95 C 850.171 1047.84 853.022 1047.28 856.18 1047.28 C 859.667 1047.28 862.721 1047.95 865.337 1049.31 C 867.947 1050.65 870.085 1052.47 871.766 1054.74 C 873.446 1057.01 874.64 1059.61 875.388 1062.52 C 876.129 1065.42 876.389 1068.46 876.175 1071.64 L 846.434 1071.64 C 846.434 1074.88 847.536 1077.95 849.238 1079.59 Z " fill="rgb(255,255,255)"/><path d=" M 844.119 1036.62 L 844.119 1042.21 L 867.191 1042.21 L 867.191 1036.62 L 844.119 1036.62 Z " fill="rgb(255,255,255)"/><path d=" M 445.921 668.551 C 445.921 705.83 415.524 736.051 378.027 736.051 C 340.531 736.051 310.134 705.83 310.134 668.551 C 310.134 631.271 340.531 601.051 378.027 601.051 C 415.524 601.051 445.921 631.271 445.921 668.551 Z " fill="rgb(1,2,1)"/><path d=" M 421.892 647.406 C 421.483 656.263 415.261 668.39 403.224 683.785 C 390.78 699.86 380.25 707.901 371.64 707.901 C 366.303 707.901 361.788 703.008 358.1 693.215 C 355.638 684.237 353.176 675.261 350.713 666.283 C 347.973 656.495 345.037 651.596 341.894 651.596 C 341.208 651.596 338.813 653.028 334.71 655.881 L 330.405 650.367 C 334.922 646.422 339.378 642.477 343.762 638.525 C 349.787 633.353 354.312 630.63 357.326 630.355 C 364.448 629.674 368.832 634.515 370.478 644.875 C 372.256 656.055 373.488 663.007 374.178 665.728 C 376.234 675.003 378.494 679.637 380.959 679.637 C 382.873 679.637 385.753 676.629 389.591 670.609 C 393.422 664.595 395.476 660.018 395.752 656.871 C 396.3 651.68 394.245 649.077 389.591 649.077 C 387.4 649.077 385.14 649.579 382.815 650.569 C 387.315 635.923 395.909 628.81 408.594 629.216 C 417.999 629.49 422.435 635.553 421.892 647.406 Z " fill="rgb(255,255,255)"/><path d=" M 671.394 1061.66 C 671.394 1098.93 640.996 1129.16 603.5 1129.16 C 566.004 1129.16 535.606 1098.93 535.606 1061.66 C 535.606 1024.38 566.004 994.155 603.5 994.155 C 640.996 994.155 671.394 1024.38 671.394 1061.66 Z " fill-rule="evenodd" fill="rgb(1,2,1)"/><path d=" M 607.451 1033.94 C 606.42 1034.28 606.077 1034.63 606.077 1035.65 L 606.077 1079.03 C 606.077 1079.71 606.763 1080.39 607.451 1080.73 L 645.583 1080.73 C 653.141 1080.73 659.324 1074.59 659.324 1067.07 C 659.324 1059.56 653.141 1053.41 645.583 1053.41 C 643.865 1053.41 641.803 1053.75 640.43 1054.44 C 639.398 1042.14 629.092 1032.58 616.383 1032.58 C 615.696 1032.58 615.352 1032.58 614.665 1032.58 C 612.26 1032.58 609.855 1033.26 607.451 1033.94 Z  M 601.954 1037.02 L 601.267 1067.75 L 601.954 1079.03 C 601.954 1079.71 602.641 1080.39 603.328 1080.39 C 604.015 1080.39 604.702 1079.71 604.702 1079.03 L 605.39 1067.75 L 604.702 1037.02 C 604.702 1036.33 604.015 1035.65 603.328 1035.65 L 602.985 1035.65 C 602.298 1035.65 601.954 1036.33 601.954 1037.02 Z  M 597.145 1039.41 L 596.457 1067.75 L 597.145 1079.03 C 597.145 1079.71 597.832 1080.39 598.519 1080.39 C 599.206 1080.39 599.893 1079.71 599.893 1079.03 L 600.58 1067.75 L 599.893 1039.41 C 599.893 1038.72 599.206 1038.04 598.519 1038.04 C 597.832 1038.04 597.145 1038.72 597.145 1039.41 Z  M 583.403 1042.48 L 582.716 1067.75 L 583.403 1079.37 C 583.403 1080.05 583.746 1080.39 584.433 1080.39 C 585.12 1080.39 585.464 1080.05 585.464 1079.37 L 586.151 1067.75 L 585.464 1042.48 C 585.464 1041.8 584.777 1041.46 584.433 1041.46 C 584.09 1041.46 583.403 1041.8 583.403 1042.48 Z  M 587.869 1043.16 L 587.182 1067.75 L 587.869 1079.37 C 587.869 1080.05 588.556 1080.73 589.243 1080.73 C 589.93 1080.73 590.617 1080.05 590.617 1079.37 L 591.304 1067.75 L 590.617 1043.16 C 590.617 1042.48 589.93 1041.8 589.243 1041.8 C 588.556 1041.8 587.869 1042.48 587.869 1043.16 Z  M 578.938 1043.16 L 578.251 1067.75 L 578.938 1079.37 C 578.938 1080.05 579.281 1080.39 579.968 1080.39 C 580.656 1080.39 580.999 1080.05 580.999 1079.37 L 581.685 1067.75 L 580.999 1043.16 C 580.999 1042.48 580.656 1042.14 579.968 1042.14 C 579.281 1042.14 578.938 1042.82 578.938 1043.16 Z  M 592.679 1044.19 L 591.992 1067.75 L 592.679 1079.03 C 592.679 1079.71 593.366 1080.39 594.053 1080.39 C 594.74 1080.39 595.427 1079.71 595.427 1079.03 L 596.114 1067.75 L 595.427 1043.85 C 595.427 1043.16 594.74 1042.48 594.053 1042.48 C 593.022 1042.82 592.679 1043.16 592.679 1044.19 Z  M 574.472 1045.21 L 573.785 1067.75 L 574.472 1079.71 C 574.472 1080.39 574.815 1080.73 575.502 1080.73 C 575.846 1080.73 576.533 1080.39 576.533 1079.71 L 577.564 1067.75 L 576.533 1045.21 C 576.533 1044.53 576.19 1044.19 575.502 1044.19 C 574.815 1044.19 574.472 1044.53 574.472 1045.21 Z  M 570.006 1049.31 L 568.975 1067.75 L 570.006 1079.71 C 570.006 1080.05 570.349 1080.39 570.693 1080.39 C 571.38 1080.39 571.724 1080.05 571.724 1079.71 L 572.754 1067.75 L 571.724 1049.31 C 571.724 1048.97 571.38 1048.63 571.037 1048.63 C 570.349 1048.63 570.006 1048.97 570.006 1049.31 Z  M 561.074 1055.46 L 560.043 1067.75 L 561.074 1079.37 C 561.074 1079.71 561.418 1080.05 561.761 1080.05 C 562.105 1080.05 562.448 1079.71 562.448 1079.37 L 563.479 1067.75 L 562.448 1055.46 C 562.448 1055.12 562.105 1054.78 561.761 1054.78 C 561.418 1054.78 561.418 1055.12 561.074 1055.46 Z  M 556.952 1055.8 L 555.921 1067.75 L 556.952 1079.03 C 556.952 1079.37 557.295 1079.71 557.639 1079.71 C 557.639 1079.71 557.982 1079.37 557.982 1079.03 L 559.013 1067.75 L 557.982 1055.8 C 557.982 1055.46 557.639 1055.12 557.295 1055.12 C 557.295 1055.46 556.952 1055.46 556.952 1055.8 Z  M 565.54 1056.48 L 564.853 1067.75 L 565.54 1079.71 C 565.54 1080.05 565.884 1080.39 566.227 1080.39 C 566.571 1080.39 566.914 1080.05 566.914 1079.71 L 568.288 1067.75 L 567.258 1056.48 C 567.258 1056.14 566.914 1055.8 566.571 1055.8 C 565.884 1055.8 565.54 1056.14 565.54 1056.48 Z  M 552.485 1057.85 L 551.455 1067.75 L 552.485 1077.66 C 552.485 1078 552.829 1078 552.829 1078 C 553.172 1078 553.172 1077.66 553.172 1077.66 L 554.547 1067.75 L 553.172 1057.85 C 553.172 1057.51 552.829 1057.51 552.829 1057.51 L 552.829 1057.51 L 552.485 1057.85 Z  M 548.363 1061.61 L 547.676 1067.75 L 548.363 1073.9 C 548.363 1074.24 548.706 1074.24 548.706 1074.24 C 549.05 1074.24 549.05 1073.9 549.05 1073.9 L 550.081 1067.75 L 549.05 1061.61 C 549.05 1061.27 548.706 1061.27 548.706 1061.27 C 548.706 1061.27 548.363 1061.27 548.363 1061.61 Z " fill="rgb(255,255,255)"/><path d=" M 1122.339 1061.66 C 1122.339 1098.93 1091.943 1129.16 1054.445 1129.16 C 1016.948 1129.16 986.552 1098.93 986.552 1061.66 C 986.552 1024.38 1016.948 994.155 1054.445 994.155 C 1091.943 994.155 1122.339 1024.38 1122.339 1061.66 Z " fill-rule="evenodd" fill="rgb(1,2,1)"/><path d=" M 1055.089 1096.12 C 1052.212 1096.14 1049.346 1096.01 1046.499 1095.6 C 1046.067 1095.54 1045.725 1095.63 1045.363 1095.88 C 1039.71 1099.82 1034.067 1103.77 1028.233 1107.45 C 1027.519 1107.89 1026.785 1108.29 1026.051 1108.7 C 1025.789 1108.85 1025.517 1108.95 1025.216 1108.99 C 1024.28 1109.11 1023.737 1108.57 1023.938 1107.64 C 1024.28 1106.03 1024.763 1104.45 1025.226 1102.86 C 1026.372 1098.85 1027.519 1094.83 1028.686 1090.83 C 1028.786 1090.47 1028.756 1090.31 1028.384 1090.12 C 1022.882 1087.35 1018.034 1083.74 1014.071 1079.01 C 1010.148 1074.33 1007.513 1069.05 1006.568 1063 C 1005.492 1056.1 1006.718 1049.57 1010.068 1043.44 C 1013.357 1037.43 1018.084 1032.78 1023.798 1029.09 C 1029.903 1025.14 1036.602 1022.69 1043.743 1021.41 C 1049.064 1020.46 1054.425 1020.22 1059.806 1020.71 C 1069.935 1021.62 1079.279 1024.73 1087.517 1030.77 C 1092.989 1034.78 1097.384 1039.72 1100.07 1045.99 C 1104.345 1056.02 1103.45 1065.72 1097.756 1074.97 C 1094.095 1080.91 1088.976 1085.35 1082.961 1088.82 C 1077.207 1092.13 1071.031 1094.22 1064.484 1095.3 C 1061.375 1095.82 1058.237 1096.09 1055.089 1096.12 Z " fill="rgb(255,255,255)"/><path d=" M 1077.499 1055.69 C 1077.6 1055.54 1077.69 1055.38 1077.821 1055.25 C 1080.195 1052.88 1082.568 1050.52 1084.952 1048.15 C 1085.847 1047.26 1086.944 1047.13 1088.01 1047.77 C 1089.086 1048.41 1089.619 1049.66 1089.297 1050.76 C 1089.167 1051.18 1088.905 1051.51 1088.603 1051.81 C 1086.652 1053.75 1084.711 1055.69 1082.749 1057.61 C 1082.478 1057.88 1082.488 1058.04 1082.709 1058.32 C 1084.882 1061.17 1087.044 1064.02 1089.207 1066.88 C 1090.152 1068.13 1090.022 1069.72 1088.915 1070.69 C 1087.678 1071.79 1085.847 1071.61 1084.821 1070.27 C 1082.88 1067.74 1080.959 1065.2 1079.028 1062.66 C 1078.978 1062.59 1078.937 1062.52 1078.887 1062.46 C 1078.656 1062.25 1078.595 1061.82 1078.243 1061.8 C 1077.972 1061.78 1077.328 1062.76 1077.328 1063.08 C 1077.328 1064.99 1077.348 1066.89 1077.318 1068.79 C 1077.308 1070.12 1076.362 1071.17 1075.025 1071.43 C 1073.818 1071.66 1072.55 1070.99 1072.027 1069.84 C 1071.846 1069.47 1071.766 1069.07 1071.766 1068.65 C 1071.776 1062.37 1071.766 1056.09 1071.776 1049.81 C 1071.776 1048.23 1073.003 1047 1074.542 1047 C 1076.081 1046.99 1077.308 1048.21 1077.328 1049.79 C 1077.348 1051.59 1077.328 1053.4 1077.328 1055.2 C 1077.328 1055.33 1077.328 1055.45 1077.328 1055.58 C 1077.388 1055.62 1077.439 1055.65 1077.499 1055.69 Z " fill="rgb(1,2,1)"/><path d=" M 1024.974 1060.82 C 1024.974 1058.2 1024.964 1055.57 1024.984 1052.95 C 1024.984 1052.54 1024.914 1052.38 1024.451 1052.4 C 1023.214 1052.43 1021.977 1052.42 1020.74 1052.41 C 1019.12 1052.4 1017.923 1051.27 1017.913 1049.75 C 1017.903 1048.2 1019.09 1047 1020.72 1047 C 1025.417 1046.98 1030.114 1046.98 1034.811 1047 C 1036.3 1047 1037.467 1048.03 1037.608 1049.4 C 1037.758 1050.75 1036.914 1051.97 1035.576 1052.33 C 1035.304 1052.41 1035.023 1052.41 1034.751 1052.41 C 1033.504 1052.41 1032.277 1052.43 1031.04 1052.4 C 1030.627 1052.39 1030.547 1052.53 1030.547 1052.9 C 1030.557 1058.13 1030.557 1063.36 1030.557 1068.59 C 1030.557 1069.98 1029.863 1070.99 1028.646 1071.37 C 1026.795 1071.95 1024.994 1070.67 1024.984 1068.74 C 1024.964 1066.1 1024.974 1063.46 1024.974 1060.82 Z " fill="rgb(1,2,1)"/><path d=" M 1056.427 1059.13 C 1056.427 1056.01 1056.417 1052.9 1056.427 1049.78 C 1056.437 1048.32 1057.483 1047.2 1058.982 1047.01 C 1060.319 1046.84 1061.647 1047.76 1062.009 1049.09 C 1062.11 1049.43 1062.1 1049.77 1062.1 1050.12 C 1062.1 1055.25 1062.1 1060.38 1062.09 1065.51 C 1062.08 1065.95 1062.2 1066.06 1062.633 1066.05 C 1064.443 1066.03 1066.264 1066.03 1068.074 1066.05 C 1069.493 1066.06 1070.629 1067.12 1070.679 1068.43 C 1070.74 1069.81 1069.653 1071.06 1068.245 1071.08 C 1065.117 1071.11 1061.979 1071.11 1058.851 1071.08 C 1057.493 1071.06 1056.427 1069.89 1056.427 1068.52 C 1056.417 1065.39 1056.427 1062.26 1056.427 1059.13 Z " fill="rgb(1,2,1)"/><path d=" M 1043.512 1061.75 C 1042.969 1061.75 1042.426 1061.73 1041.872 1061.76 C 1041.52 1061.78 1041.47 1061.69 1041.591 1061.36 C 1042.305 1059.37 1043.009 1057.38 1043.713 1055.39 C 1043.874 1054.95 1044.035 1054.5 1044.236 1053.91 C 1045.192 1056.59 1046.097 1059.14 1047.022 1061.75 C 1045.815 1061.75 1044.658 1061.75 1043.512 1061.75 Z  M 1054.516 1066.91 C 1053.359 1063.86 1052.182 1060.82 1051.025 1057.78 C 1049.989 1055.07 1048.963 1052.36 1047.917 1049.66 C 1047.213 1047.85 1045.373 1046.73 1043.622 1047.08 C 1042.084 1047.39 1041.058 1048.36 1040.504 1049.81 C 1038.613 1054.74 1036.722 1059.68 1034.842 1064.62 C 1034.399 1065.8 1033.856 1066.95 1033.594 1068.19 C 1033.182 1070.17 1033.856 1071.16 1035.807 1071.44 C 1037.306 1071.67 1038.282 1071.11 1038.815 1069.72 C 1039.167 1068.82 1039.529 1067.92 1039.851 1067.01 C 1039.951 1066.73 1040.092 1066.65 1040.384 1066.65 C 1041.671 1066.67 1042.959 1066.66 1044.246 1066.66 C 1045.513 1066.66 1046.791 1066.67 1048.058 1066.65 C 1048.4 1066.64 1048.541 1066.76 1048.642 1067.07 C 1048.974 1067.99 1049.396 1068.89 1049.688 1069.82 C 1050.05 1070.98 1050.885 1071.4 1051.991 1071.47 C 1052.595 1071.5 1053.168 1071.38 1053.731 1071.18 C 1054.506 1070.9 1054.878 1070.34 1054.958 1069.55 C 1055.039 1068.63 1054.838 1067.75 1054.516 1066.91 Z " fill="rgb(1,2,1)"/><path d=" M 1122.339 668.551 C 1122.339 705.83 1091.943 736.051 1054.445 736.051 C 1016.948 736.051 986.552 705.83 986.552 668.551 C 986.552 631.271 1016.948 601.051 1054.445 601.051 C 1091.943 601.051 1122.339 631.271 1122.339 668.551 Z " fill-rule="evenodd" fill="rgb(1,2,1)"/><path d=" M 1100.492 662.051 C 1100.492 641.467 1079.742 624.721 1054.224 624.721 C 1028.716 624.721 1007.956 641.467 1007.956 662.051 C 1007.956 680.504 1024.421 695.958 1046.65 698.88 C 1048.159 699.203 1050.211 699.867 1050.724 701.148 C 1051.196 702.311 1051.035 704.133 1050.875 705.308 C 1050.875 705.308 1050.331 708.553 1050.221 709.245 C 1050.02 710.407 1049.285 713.794 1054.224 711.725 C 1059.163 709.656 1080.868 696.126 1090.575 685.018 L 1090.575 685.018 C 1097.284 677.707 1100.492 670.288 1100.492 662.051 Z " fill="rgb(255,255,255)"/><path d=" M 1044.819 652.104 L 1041.581 652.104 C 1041.078 652.104 1040.675 652.505 1040.675 652.998 L 1040.675 673.042 C 1040.675 673.535 1041.078 673.936 1041.581 673.936 L 1044.819 673.936 C 1045.322 673.936 1045.725 673.535 1045.725 673.042 L 1045.725 652.998 C 1045.725 652.505 1045.322 652.104 1044.819 652.104 Z " fill="rgb(1,2,1)"/><path d=" M 1067.159 652.104 L 1063.92 652.104 C 1063.417 652.104 1063.015 652.505 1063.015 652.998 L 1063.015 664.906 L 1053.781 652.502 C 1053.751 652.47 1053.731 652.439 1053.711 652.411 C 1053.701 652.408 1053.701 652.406 1053.701 652.405 C 1053.681 652.386 1053.661 652.367 1053.651 652.35 C 1053.641 652.345 1053.641 652.34 1053.631 652.335 C 1053.61 652.32 1053.6 652.307 1053.58 652.295 C 1053.57 652.288 1053.57 652.282 1053.56 652.276 C 1053.54 652.266 1053.53 652.255 1053.51 652.244 C 1053.5 652.238 1053.49 652.233 1053.49 652.229 C 1053.47 652.219 1053.449 652.21 1053.439 652.202 C 1053.429 652.197 1053.419 652.192 1053.409 652.188 C 1053.389 652.181 1053.379 652.173 1053.359 652.166 C 1053.349 652.162 1053.339 652.159 1053.329 652.156 C 1053.309 652.149 1053.289 652.144 1053.279 652.139 C 1053.268 652.136 1053.248 652.134 1053.238 652.131 C 1053.228 652.126 1053.208 652.122 1053.188 652.119 C 1053.178 652.117 1053.168 652.115 1053.148 652.114 C 1053.138 652.111 1053.118 652.109 1053.107 652.108 C 1053.087 652.106 1053.077 652.105 1053.057 652.105 C 1053.047 652.105 1053.037 652.104 1053.027 652.104 L 1049.778 652.104 C 1049.285 652.104 1048.883 652.505 1048.883 652.998 L 1048.883 673.042 C 1048.883 673.535 1049.285 673.936 1049.778 673.936 L 1053.027 673.936 C 1053.53 673.936 1053.932 673.535 1053.932 673.042 L 1053.932 661.138 L 1063.176 673.558 C 1063.246 673.647 1063.317 673.721 1063.407 673.778 C 1063.407 673.781 1063.417 673.783 1063.417 673.786 C 1063.437 673.798 1063.458 673.81 1063.468 673.819 C 1063.478 673.824 1063.488 673.829 1063.498 673.833 C 1063.508 673.841 1063.528 673.848 1063.538 673.854 C 1063.558 673.86 1063.568 673.866 1063.588 673.872 C 1063.598 673.876 1063.598 673.88 1063.608 673.883 C 1063.628 673.89 1063.649 673.896 1063.669 673.902 C 1063.679 673.902 1063.679 673.904 1063.689 673.905 C 1063.759 673.925 1063.84 673.936 1063.92 673.936 L 1067.159 673.936 C 1067.662 673.936 1068.064 673.535 1068.064 673.042 L 1068.064 652.998 C 1068.064 652.505 1067.662 652.104 1067.159 652.104 Z " fill="rgb(1,2,1)"/><path d=" M 1037.004 668.917 L 1028.183 668.917 L 1028.183 652.999 C 1028.183 652.504 1027.781 652.104 1027.278 652.104 L 1024.039 652.104 C 1023.536 652.104 1023.134 652.504 1023.134 652.999 L 1023.134 673.04 L 1023.134 673.041 C 1023.134 673.281 1023.234 673.499 1023.385 673.66 C 1023.395 673.664 1023.395 673.669 1023.395 673.674 C 1023.405 673.678 1023.405 673.682 1023.415 673.687 C 1023.576 673.841 1023.798 673.936 1024.039 673.936 L 1024.039 673.936 L 1037.004 673.936 C 1037.497 673.936 1037.899 673.534 1037.899 673.04 L 1037.899 669.813 C 1037.899 669.318 1037.497 668.917 1037.004 668.917 Z " fill="rgb(1,2,1)"/><path d=" M 1085.083 657.122 C 1085.586 657.122 1085.988 656.722 1085.988 656.227 L 1085.988 653 C 1085.988 652.505 1085.586 652.104 1085.083 652.104 L 1072.118 652.104 L 1072.118 652.104 C 1071.876 652.104 1071.655 652.2 1071.494 652.356 C 1071.494 652.359 1071.484 652.362 1071.484 652.365 C 1071.474 652.371 1071.474 652.377 1071.464 652.382 C 1071.313 652.542 1071.223 652.759 1071.223 652.999 L 1071.223 653 L 1071.223 673.04 L 1071.223 673.041 C 1071.223 673.282 1071.313 673.5 1071.474 673.66 C 1071.474 673.664 1071.474 673.67 1071.484 673.674 C 1071.484 673.678 1071.494 673.682 1071.494 673.686 C 1071.655 673.84 1071.876 673.937 1072.118 673.937 L 1072.118 673.937 L 1085.083 673.937 C 1085.586 673.937 1085.988 673.534 1085.988 673.04 L 1085.988 669.813 C 1085.988 669.318 1085.586 668.917 1085.083 668.917 L 1076.272 668.917 L 1076.272 665.529 L 1085.083 665.529 C 1085.586 665.529 1085.988 665.128 1085.988 664.633 L 1085.988 661.406 C 1085.988 660.911 1085.586 660.51 1085.083 660.51 L 1076.272 660.51 L 1076.272 657.122 L 1085.083 657.122 Z " fill="rgb(1,2,1)"/><g><path d=" M 208.321 313.956 C 215.966 303.034 220.448 289.761 220.448 275.446 C 220.448 238.166 190.051 207.946 152.555 207.946 C 115.058 207.946 84.661 238.166 84.661 275.446 C 84.661 309.137 109.489 337.062 141.946 342.125 L 141.946 294.957 L 124.707 294.957 L 124.707 275.446 L 141.946 275.446 L 141.946 260.575 C 141.946 243.658 152.083 234.313 167.591 234.313 C 175.019 234.313 182.789 235.631 182.789 235.631 L 182.789 252.243 L 174.227 252.243 C 165.794 252.243 163.163 257.446 163.163 262.784 L 163.163 275.446 L 181.993 275.446 L 178.983 294.957 L 163.163 294.957 L 163.163 342.125 C 181.83 339.213 197.973 328.74 208.321 313.956 Z " fill="rgb(1,2,1)"/></g><path d=" M 178.983 294.957 L 181.993 275.446 L 163.163 275.446 L 163.163 262.784 C 163.163 257.446 165.794 252.243 174.227 252.243 L 182.789 252.243 L 182.789 235.631 C 182.789 235.631 175.019 234.313 167.591 234.313 C 152.083 234.313 141.946 243.658 141.946 260.575 L 141.946 275.446 L 124.707 275.446 L 124.707 294.957 L 141.946 294.957 L 141.946 342.125 C 145.403 342.665 148.946 342.946 152.555 342.946 C 156.164 342.946 159.706 342.665 163.163 342.125 L 163.163 294.957 L 178.983 294.957 Z " fill="rgb(255,255,255)"/><path d=" M 192.922 660.891 C 171.037 647.969 134.938 646.781 114.045 653.085 C 110.691 654.097 107.142 652.214 106.126 648.879 C 105.11 645.541 107.002 642.017 110.359 641.003 C 134.342 633.765 174.209 635.163 199.404 650.032 C 202.422 651.813 203.412 655.688 201.623 658.683 C 199.832 661.683 195.932 662.672 192.922 660.891 Z  M 192.206 680.029 C 190.67 682.506 187.413 683.282 184.924 681.762 C 166.679 670.611 138.856 667.382 117.271 673.896 C 114.472 674.737 111.515 673.168 110.665 670.39 C 109.821 667.607 111.4 664.673 114.194 663.826 C 138.853 656.388 169.507 659.99 190.464 672.794 C 192.952 674.317 193.735 677.558 192.206 680.029 Z  M 183.898 698.409 C 182.677 700.398 180.072 701.021 178.079 699.81 C 162.135 690.121 142.069 687.934 118.436 693.301 C 116.158 693.819 113.888 692.4 113.368 690.137 C 112.847 687.873 114.269 685.616 116.551 685.1 C 142.414 679.222 164.599 681.751 182.494 692.623 C 184.489 693.835 185.117 696.426 183.898 698.409 Z  M 152.761 601.051 C 115.264 601.051 84.867 631.271 84.867 668.55 C 84.867 705.831 115.264 736.051 152.761 736.051 C 190.258 736.051 220.655 705.831 220.655 668.55 C 220.655 631.271 190.258 601.051 152.761 601.051 Z " fill="rgb(1,2,1)"/><path d=" M 183.898 698.409 C 182.677 700.398 180.072 701.021 178.079 699.81 C 162.135 690.121 142.069 687.934 118.436 693.301 C 116.158 693.819 113.888 692.4 113.368 690.137 C 112.847 687.873 114.269 685.616 116.551 685.1 C 142.414 679.222 164.599 681.751 182.494 692.623 C 184.489 693.835 185.117 696.426 183.898 698.409 Z " fill="rgb(255,255,255)"/><path d=" M 192.206 680.029 C 190.67 682.506 187.413 683.282 184.924 681.762 C 166.679 670.611 138.856 667.382 117.271 673.896 C 114.472 674.737 111.515 673.168 110.665 670.39 C 109.821 667.607 111.4 664.673 114.194 663.826 C 138.853 656.388 169.507 659.99 190.464 672.794 C 192.952 674.317 193.735 677.558 192.206 680.029 Z " fill="rgb(255,255,255)"/><path d=" M 192.922 660.891 C 171.037 647.969 134.938 646.781 114.045 653.085 C 110.691 654.097 107.142 652.214 106.126 648.879 C 105.11 645.541 107.002 642.017 110.359 641.003 C 134.342 633.765 174.209 635.163 199.404 650.032 C 202.422 651.813 203.412 655.688 201.623 658.683 C 199.832 661.683 195.932 662.672 192.922 660.891 Z " fill="rgb(255,255,255)"/><path d=" M 445.921 472.464 C 445.921 509.743 415.524 539.964 378.027 539.964 C 340.531 539.964 310.134 509.743 310.134 472.464 C 310.134 435.185 340.531 404.964 378.027 404.964 C 415.524 404.964 445.921 435.185 445.921 472.464 Z " fill="rgb(1,2,1)"/><path d=" M 416.071 450.157 C 416.072 449.765 416.06 449.75 415.648 449.754 C 414.653 449.763 413.669 449.645 412.691 449.498 C 409.139 448.965 397.617 442.956 395.668 433.126 C 395.628 432.934 395.194 430.495 395.199 429.456 C 395.202 428.991 395.193 428.99 394.732 428.983 C 394.626 428.981 394.519 428.983 394.412 428.983 C 389.904 428.983 385.395 428.98 380.886 428.984 C 379.978 428.985 380.105 428.872 380.105 429.778 C 380.102 449.218 380.102 468.659 380.106 488.1 C 380.106 488.825 380.085 489.549 379.958 490.26 C 379.278 494.021 377.339 496.966 374.059 498.977 C 371.218 500.719 368.133 501.216 364.858 500.572 C 363.826 500.369 362.857 499.982 361.888 499.6 C 361.808 499.528 361.73 499.457 361.651 499.386 C 361.326 499.114 360.966 498.89 360.616 498.649 C 356.442 495.775 354.463 491.786 355.065 486.797 C 355.677 481.736 358.606 478.3 363.431 476.53 C 364.87 476.002 366.387 475.784 367.926 475.866 C 368.917 475.918 369.903 476.043 370.864 476.315 C 371.196 476.409 371.376 476.292 371.393 475.942 C 371.399 475.818 371.402 475.695 371.402 475.572 C 371.403 472.082 371.271 464.459 371.253 464.442 C 371.26 463.437 371.26 462.432 371.278 461.428 C 371.284 461.138 371.139 461.088 370.894 461.059 C 369.075 460.844 367.257 460.804 365.427 460.937 C 362.9 461.121 360.45 461.636 358.07 462.488 C 354.272 463.846 350.938 465.945 348.061 468.748 C 345.589 471.155 343.647 473.938 342.223 477.075 C 340.859 480.077 340.078 483.229 339.863 486.509 C 339.768 487.932 339.787 489.36 339.919 490.788 C 340.102 492.761 340.479 494.691 341.082 496.576 C 342.817 501.993 345.969 506.437 350.443 509.962 C 350.898 510.321 351.335 510.714 351.88 510.947 L 351.88 510.947 C 352.108 511.148 352.336 511.35 352.565 511.551 C 353.289 512.094 354.064 512.558 354.875 512.956 C 359.886 515.417 365.165 516.417 370.729 515.742 C 377.948 514.865 383.963 511.685 388.697 506.205 C 393.154 501.047 395.32 494.992 395.359 488.224 C 395.415 478.542 395.372 468.86 395.378 459.178 C 395.378 458.947 395.244 458.619 395.501 458.503 C 395.701 458.412 395.902 458.676 396.09 458.799 C 399.715 461.166 403.623 462.877 407.855 463.84 C 410.319 464.4 412.807 464.74 415.341 464.736 C 416.14 464.735 416.246 464.695 416.247 463.908 C 416.252 460.469 416.07 451.07 416.071 450.157 Z " fill="rgb(255,255,255)"/><path d=" M 445.921 864.637 C 445.921 901.916 415.524 932.137 378.027 932.137 C 340.531 932.137 310.134 901.916 310.134 864.637 C 310.134 827.357 340.531 797.137 378.027 797.137 C 415.524 797.137 445.921 827.357 445.921 864.637 Z " fill-rule="evenodd" fill="rgb(1,2,1)"/><path d=" M 411.555 866.304 L 398.144 879.637 L 384.732 879.637 L 372.998 891.304 L 372.998 879.637 L 357.911 879.637 L 357.911 829.637 L 411.555 829.637 L 411.555 866.304 Z  M 354.557 822.971 L 337.794 839.637 L 337.794 899.637 L 357.911 899.637 L 357.911 916.304 L 374.674 899.637 L 388.086 899.637 L 418.261 869.637 L 418.261 822.971 L 354.557 822.971 Z " fill="rgb(255,255,255)"/><path d=" M 394.791 841.304 L 401.496 841.304 L 401.496 861.304 L 394.791 861.304 L 394.791 841.304 Z " fill="rgb(255,255,255)"/><path d=" M 376.351 841.304 L 383.057 841.304 L 383.057 861.304 L 376.351 861.304 L 376.351 841.304 Z " fill="rgb(255,255,255)"/><path d=" M 671.394 864.637 C 671.394 901.916 640.996 932.137 603.5 932.137 C 566.004 932.137 535.606 901.916 535.606 864.637 C 535.606 827.357 566.004 797.137 603.5 797.137 C 640.996 797.137 671.394 827.357 671.394 864.637 Z " fill-rule="evenodd" fill="rgb(1,2,1)"/><linearGradient id="_lgradient_2" x1="0" y1="0" x2="1" y2="0" gradientTransform="matrix(0,0,0,0,649.195,880.939)" gradientUnits="userSpaceOnUse"><stop offset="0%" stop-opacity="1" style="stop-color:rgb(0,183,240)"/><stop offset="100%" stop-opacity="1" style="stop-color:rgb(0,124,193)"/></linearGradient><path d=" M 649.195 881.9 L 649.195 881.9 C 649.195 881.901 649.195 881.902 649.195 881.903 L 649.195 881.9 Z " fill="url(#_lgradient_2)"/><path d=" M 617.813 882.803 C 616.244 884.922 614.072 886.524 611.578 887.404 C 608.572 888.473 605.397 888.986 602.206 888.923 C 597.819 889.075 593.456 888.255 589.429 886.52 C 588.4 886.064 587.497 885.366 586.799 884.487 C 586.22 883.681 585.92 882.71 585.943 881.72 C 585.885 880.662 586.296 879.633 587.068 878.903 C 587.866 878.207 588.903 877.844 589.965 877.887 C 591.147 877.902 592.309 878.199 593.352 878.753 C 594.65 879.397 595.673 879.882 596.422 880.204 C 597.278 880.561 598.164 880.839 599.07 881.037 C 600.188 881.28 601.329 881.397 602.473 881.386 C 604.496 881.529 606.508 880.996 608.191 879.87 C 609.47 878.876 610.186 877.331 610.118 875.719 C 610.12 874.593 609.689 873.508 608.912 872.688 C 607.884 871.635 606.682 870.765 605.359 870.117 C 603.793 869.296 601.59 868.296 598.75 867.116 C 596.211 866.11 593.78 864.854 591.492 863.366 C 589.766 862.236 588.326 860.726 587.283 858.952 C 586.276 857.077 585.78 854.975 585.842 852.851 C 585.766 850.155 586.692 847.526 588.441 845.467 C 590.259 843.397 592.597 841.845 595.215 840.966 C 598.062 839.966 601.064 839.464 604.083 839.481 C 606.06 839.463 608.033 839.613 609.983 839.932 C 611.379 840.146 612.75 840.497 614.076 840.981 C 615.293 841.392 616.392 842.089 617.278 843.015 C 617.932 843.775 618.282 844.748 618.267 845.748 C 618.314 846.798 617.939 847.823 617.226 848.599 C 616.55 849.313 615.598 849.708 614.611 849.682 C 613.941 849.677 613.278 849.528 612.668 849.247 C 611.167 848.579 609.621 848.017 608.04 847.563 C 606.585 847.182 605.086 846.997 603.581 847.013 C 601.621 846.94 599.681 847.434 597.996 848.433 C 596.548 849.308 595.693 850.897 595.766 852.581 C 595.756 853.666 596.171 854.713 596.924 855.499 C 597.819 856.422 598.876 857.174 600.043 857.718 C 601.352 858.363 603.301 859.218 605.894 860.283 C 606.182 860.374 606.461 860.485 606.732 860.617 C 609.262 861.612 611.688 862.852 613.974 864.318 C 615.78 865.489 617.303 867.043 618.434 868.868 C 619.545 870.786 620.103 872.973 620.043 875.187 C 620.136 877.896 619.356 880.565 617.813 882.803 Z  M 649.189 881.913 C 649.191 881.909 649.193 881.905 649.195 881.9 C 649.187 881.788 649.172 881.677 649.162 881.564 C 649.142 881.321 649.121 881.078 649.093 880.837 C 649.061 880.538 649.022 880.242 648.98 879.947 C 648.965 879.847 648.952 879.747 648.936 879.646 C 648.435 876.398 647.359 873.356 645.815 870.621 C 646.077 868.729 646.224 866.8 646.224 864.836 C 646.224 841.458 627.098 822.506 603.504 822.506 C 601.965 822.506 600.445 822.591 598.949 822.748 C 598.887 822.711 598.827 822.67 598.766 822.633 L 598.766 822.633 C 598.647 822.561 598.526 822.493 598.406 822.423 C 598.317 822.371 598.226 822.32 598.136 822.269 C 597.809 822.082 597.478 821.902 597.142 821.729 C 597.039 821.675 596.935 821.622 596.83 821.569 C 596.79 821.55 596.752 821.524 596.712 821.505 C 596.709 821.505 596.707 821.506 596.704 821.506 C 596.411 821.361 596.114 821.225 595.815 821.09 C 595.706 821.041 595.598 820.991 595.489 820.943 C 595.278 820.853 595.067 820.766 594.854 820.68 C 594.845 820.676 594.837 820.673 594.828 820.669 C 594.685 820.612 594.542 820.557 594.398 820.502 C 594.329 820.475 594.262 820.444 594.193 820.418 C 594.191 820.419 594.19 820.419 594.188 820.419 C 592.989 819.973 591.748 819.61 590.474 819.335 C 590.437 819.327 590.401 819.317 590.363 819.31 C 589.67 819.163 588.967 819.047 588.256 818.954 C 588.19 818.945 588.128 818.93 588.062 818.921 C 588.056 818.923 588.051 818.926 588.045 818.928 C 586.95 818.793 585.838 818.716 584.706 818.716 C 569.81 818.716 557.735 830.682 557.735 845.442 C 557.735 846.209 557.775 846.965 557.838 847.716 C 557.837 847.72 557.835 847.725 557.833 847.729 C 557.838 847.798 557.849 847.865 557.855 847.935 C 557.875 848.146 557.9 848.355 557.924 848.565 C 557.957 848.854 557.992 849.142 558.034 849.427 C 558.046 849.502 558.058 849.576 558.071 849.65 C 558.58 852.922 559.672 855.978 561.236 858.723 C 560.944 860.719 560.786 862.759 560.786 864.836 C 560.786 888.214 579.912 907.166 603.504 907.166 C 605.227 907.166 606.922 907.053 608.593 906.856 C 608.609 906.866 608.626 906.875 608.642 906.885 C 608.708 906.924 608.775 906.961 608.842 906.999 C 608.899 907.032 608.957 907.065 609.015 907.098 C 609.087 907.139 609.158 907.181 609.23 907.221 C 609.758 907.51 610.295 907.781 610.844 908.036 C 610.865 908.046 610.886 908.059 610.907 908.069 C 610.909 908.068 610.912 908.068 610.914 908.067 C 611.256 908.226 611.601 908.378 611.95 908.522 C 612.043 908.561 612.137 908.595 612.231 908.632 C 612.59 908.775 612.953 908.912 613.322 909.04 C 613.383 909.063 613.444 909.089 613.506 909.109 C 613.51 909.108 613.514 909.107 613.519 909.106 C 613.991 909.268 614.468 909.415 614.951 909.55 C 614.999 909.563 615.046 909.577 615.094 909.59 C 615.422 909.68 615.753 909.763 616.085 909.84 C 616.168 909.859 616.252 909.879 616.335 909.897 C 616.644 909.967 616.955 910.03 617.268 910.089 C 617.382 910.11 617.495 910.13 617.608 910.149 C 617.899 910.2 618.191 910.248 618.486 910.289 C 618.635 910.31 618.783 910.326 618.931 910.345 C 619.196 910.377 619.462 910.41 619.729 910.435 C 619.766 910.438 619.803 910.444 619.84 910.447 C 619.843 910.446 619.846 910.445 619.849 910.444 C 620.652 910.516 621.463 910.558 622.285 910.558 C 637.185 910.558 649.265 898.588 649.265 883.822 C 649.265 883.18 649.234 882.544 649.189 881.913 Z " fill-rule="evenodd" fill="rgb(255,255,255)"/><path d=" M 378.027 994.155 C 340.531 994.155 310.134 1024.38 310.134 1061.66 C 310.134 1098.93 340.531 1129.16 378.027 1129.16 C 415.524 1129.16 445.921 1098.93 445.921 1061.66 C 445.921 1024.38 415.524 994.155 378.027 994.155 Z " fill="rgb(1,2,1)"/><path d=" M 411.077 1034.24 C 410.818 1033.48 410.508 1033.28 410.024 1033.09 C 408.966 1032.7 407.173 1033.29 407.173 1033.29 C 407.173 1033.29 343.72 1055.97 340.095 1058.48 C 339.315 1059.02 339.053 1059.34 338.924 1059.71 C 338.297 1061.49 340.249 1062.28 340.249 1062.28 L 356.604 1067.58 C 356.604 1067.58 357.214 1067.67 357.431 1067.53 C 361.152 1065.19 394.864 1044.03 396.808 1043.32 C 397.115 1043.23 397.342 1043.33 397.282 1043.54 C 396.504 1046.26 367.223 1072.13 367.223 1072.13 C 367.223 1072.13 367.111 1072.27 367.041 1072.43 L 367.002 1072.41 L 365.477 1088.54 C 365.477 1088.54 364.837 1093.48 369.807 1088.54 C 373.313 1085.05 376.706 1082.13 378.404 1080.72 C 384.027 1084.58 390.079 1088.85 392.691 1091.08 C 394.003 1092.2 395.1 1092.38 396.004 1092.35 C 398.483 1092.26 399.175 1089.55 399.175 1089.55 C 399.175 1089.55 410.738 1043.28 411.124 1037.08 C 411.163 1036.47 411.215 1036.09 411.219 1035.67 C 411.226 1035.09 411.172 1034.51 411.077 1034.24 Z " fill="rgb(255,255,255)"/></svg>