<?xml version="1.0" encoding="UTF-8" standalone="no"?><!-- Generator: Gravit.io --><svg xmlns="http://www.w3.org/2000/svg" xmlns:xlink="http://www.w3.org/1999/xlink" style="isolation:isolate" viewBox="986.552 207.946 135.787 135" width="135.787pt" height="135pt"><g><path d=" M 1122.339 275.446 C 1122.339 312.725 1091.943 342.946 1054.445 342.946 C 1016.948 342.946 986.552 312.725 986.552 275.446 C 986.552 238.166 1016.948 207.946 1054.445 207.946 C 1091.943 207.946 1122.339 238.166 1122.339 275.446 Z " fill-rule="evenodd" fill="rgb(1,2,1)"/><path d=" M 1040.726 314.321 C 1073.888 314.321 1092.023 287.008 1092.023 263.324 C 1092.023 262.548 1092.003 261.775 1091.973 261.007 C 1095.493 258.477 1098.551 255.32 1100.965 251.727 C 1097.736 253.153 1094.256 254.115 1090.615 254.548 C 1094.337 252.33 1097.193 248.818 1098.541 244.633 C 1095.051 246.687 1091.198 248.18 1087.095 248.984 C 1083.795 245.5 1079.118 243.321 1073.928 243.321 C 1063.971 243.321 1055.904 251.348 1055.904 261.243 C 1055.904 262.65 1056.055 264.018 1056.366 265.33 C 1041.379 264.581 1028.102 257.449 1019.211 246.604 C 1017.662 249.251 1016.767 252.33 1016.767 255.612 C 1016.767 261.831 1019.945 267.32 1024.793 270.532 C 1021.836 270.441 1019.05 269.633 1016.626 268.289 C 1016.616 268.364 1016.616 268.439 1016.616 268.518 C 1016.616 277.199 1022.832 284.446 1031.08 286.09 C 1029.571 286.499 1027.972 286.72 1026.332 286.72 C 1025.165 286.72 1024.039 286.606 1022.943 286.397 C 1025.236 293.518 1031.895 298.7 1039.78 298.846 C 1033.614 303.653 1025.839 306.518 1017.39 306.518 C 1015.942 306.518 1014.504 306.436 1013.095 306.27 C 1021.072 311.353 1030.547 314.321 1040.726 314.321 Z " fill="rgb(255,255,255)"/></g></svg>