<?xml version="1.0" encoding="UTF-8" standalone="no"?><!-- Generator: Gravit.io --><svg xmlns="http://www.w3.org/2000/svg" xmlns:xlink="http://www.w3.org/1999/xlink" style="isolation:isolate" viewBox="761.079 207.946 135.787 135" width="135.787pt" height="135pt"><g><path d=" M 896.866 275.446 C 896.866 312.725 866.469 342.946 828.973 342.946 C 791.476 342.946 761.079 312.725 761.079 275.446 C 761.079 238.166 791.476 207.946 828.973 207.946 C 866.469 207.946 896.866 238.166 896.866 275.446 Z " fill="rgb(1,2,1)"/><path d=" M 850.801 283.02 C 849.725 282.485 844.434 279.897 843.448 279.54 C 842.461 279.184 841.744 279.005 841.026 280.076 C 840.309 281.146 838.246 283.556 837.619 284.27 C 836.991 284.983 836.363 285.073 835.287 284.537 C 834.211 284.002 830.744 282.873 826.633 279.228 C 823.434 276.393 821.274 272.89 820.646 271.819 C 820.019 270.748 820.579 270.169 821.118 269.636 C 821.602 269.157 822.194 268.387 822.732 267.762 C 823.271 267.138 823.45 266.691 823.808 265.978 C 824.168 265.264 823.988 264.639 823.718 264.104 C 823.45 263.568 821.297 258.304 820.401 256.162 C 819.527 254.077 818.641 254.359 817.979 254.326 C 817.352 254.295 816.634 254.289 815.917 254.289 C 815.2 254.289 814.034 254.556 813.047 255.627 C 812.061 256.698 809.28 259.285 809.28 264.55 C 809.28 269.814 813.137 274.9 813.675 275.614 C 814.213 276.328 821.263 287.132 832.058 291.765 C 834.626 292.867 836.631 293.525 838.194 294.018 C 840.772 294.832 843.119 294.717 844.972 294.442 C 847.039 294.135 851.339 291.854 852.237 289.355 C 853.134 286.857 853.134 284.716 852.864 284.27 C 852.595 283.824 851.877 283.556 850.801 283.02 Z  M 831.165 309.667 L 831.15 309.667 C 824.727 309.665 818.428 307.95 812.931 304.708 L 811.623 303.936 L 798.074 307.469 L 801.691 294.34 L 800.839 292.994 C 797.257 287.329 795.364 280.782 795.367 274.059 C 795.375 254.442 811.434 238.482 831.179 238.482 C 840.741 238.486 849.73 242.192 856.488 248.916 C 863.246 255.642 866.966 264.581 866.964 274.088 C 866.955 293.707 850.896 309.667 831.165 309.667 Z  M 861.632 243.807 C 853.501 235.715 842.686 231.257 831.165 231.252 C 807.425 231.252 788.104 250.454 788.095 274.057 C 788.092 281.601 790.075 288.965 793.844 295.457 L 787.733 317.639 L 810.565 311.686 C 816.856 315.097 823.939 316.894 831.147 316.897 L 831.165 316.897 C 831.167 316.897 831.164 316.897 831.165 316.897 C 854.902 316.897 874.225 297.693 874.235 274.091 C 874.239 262.653 869.764 251.897 861.632 243.807 Z " fill-rule="evenodd" fill="rgb(255,255,255)"/></g></svg>