<?xml version="1.0" encoding="UTF-8" standalone="no"?><!-- Generator: Gravit.io --><svg xmlns="http://www.w3.org/2000/svg" xmlns:xlink="http://www.w3.org/1999/xlink" style="isolation:isolate" viewBox="535.606 404.964 135.787 135" width="135.787pt" height="135pt"><g><path d=" M 671.394 472.464 C 671.394 509.743 640.996 539.964 603.5 539.964 C 566.004 539.964 535.606 509.743 535.606 472.464 C 535.606 435.185 566.004 404.964 603.5 404.964 C 640.996 404.964 671.394 435.185 671.394 472.464 Z " fill="rgb(1,2,1)"/><path d=" M 594.447 485.964 L 594.447 458.964 L 617.966 472.464 L 594.447 485.964 Z  M 646.871 450.802 C 645.829 446.93 642.763 443.88 638.867 442.845 C 631.808 440.964 603.5 440.964 603.5 440.964 C 603.5 440.964 575.192 440.964 568.132 442.845 C 564.237 443.88 561.169 446.93 560.129 450.802 C 558.237 457.82 558.237 472.464 558.237 472.464 C 558.237 472.464 558.237 487.108 560.129 494.126 C 561.169 497.999 564.237 501.048 568.132 502.083 C 575.192 503.964 603.5 503.964 603.5 503.964 C 603.5 503.964 631.808 503.964 638.867 502.083 C 642.763 501.048 645.829 497.999 646.871 494.126 C 648.762 487.108 648.762 472.464 648.762 472.464 C 648.762 472.464 648.762 457.82 646.871 450.802 Z " fill="rgb(255,255,255)"/></g></svg>